<mxfile host="Electron" modified="2024-02-12T14:46:34.750Z" agent="Mozilla/5.0 (X11; Linux x86_64) AppleWebKit/537.36 (KHTML, like Gecko) draw.io/23.0.2 Chrome/120.0.6099.109 Electron/28.1.0 Safari/537.36" etag="1zif0RWVYmEwj-5tguC4" version="23.0.2" type="device">
  <diagram name="Page-1" id="08ij5VfSo65iKQoD_S4z">
    <mxGraphModel dx="1434" dy="838" grid="1" gridSize="10" guides="1" tooltips="1" connect="1" arrows="1" fold="1" page="1" pageScale="1" pageWidth="850" pageHeight="1100" math="0" shadow="0">
      <root>
        <mxCell id="0" />
        <mxCell id="1" parent="0" />
        <mxCell id="v8sl4b0eTk3ght6R_iG8-2" value="User" style="sketch=0;outlineConnect=0;fontColor=#232F3E;gradientColor=none;strokeColor=#232F3E;fillColor=#ffffff;dashed=0;verticalLabelPosition=bottom;verticalAlign=top;align=center;html=1;fontSize=12;fontStyle=0;aspect=fixed;shape=mxgraph.aws4.resourceIcon;resIcon=mxgraph.aws4.user;" vertex="1" parent="1">
          <mxGeometry y="360" width="80" height="80" as="geometry" />
        </mxCell>
        <mxCell id="v8sl4b0eTk3ght6R_iG8-6" value="" style="endArrow=none;dashed=1;html=1;rounded=0;" edge="1" parent="1">
          <mxGeometry width="50" height="50" relative="1" as="geometry">
            <mxPoint x="120" y="640" as="sourcePoint" />
            <mxPoint x="120" y="160" as="targetPoint" />
          </mxGeometry>
        </mxCell>
        <mxCell id="v8sl4b0eTk3ght6R_iG8-7" value="Cloud" style="text;html=1;align=center;verticalAlign=middle;resizable=0;points=[];autosize=1;strokeColor=none;fillColor=none;" vertex="1" parent="1">
          <mxGeometry x="255" y="160" width="50" height="30" as="geometry" />
        </mxCell>
        <mxCell id="v8sl4b0eTk3ght6R_iG8-8" value="AWS Cloud" style="points=[[0,0],[0.25,0],[0.5,0],[0.75,0],[1,0],[1,0.25],[1,0.5],[1,0.75],[1,1],[0.75,1],[0.5,1],[0.25,1],[0,1],[0,0.75],[0,0.5],[0,0.25]];outlineConnect=0;gradientColor=none;html=1;whiteSpace=wrap;fontSize=12;fontStyle=0;container=1;pointerEvents=0;collapsible=0;recursiveResize=0;shape=mxgraph.aws4.group;grIcon=mxgraph.aws4.group_aws_cloud_alt;strokeColor=#232F3E;fillColor=none;verticalAlign=top;align=left;spacingLeft=30;fontColor=#232F3E;dashed=0;" vertex="1" parent="1">
          <mxGeometry x="160" y="200" width="240" height="400" as="geometry" />
        </mxCell>
        <mxCell id="v8sl4b0eTk3ght6R_iG8-9" value="" style="sketch=0;points=[[0,0,0],[0.25,0,0],[0.5,0,0],[0.75,0,0],[1,0,0],[0,1,0],[0.25,1,0],[0.5,1,0],[0.75,1,0],[1,1,0],[0,0.25,0],[0,0.5,0],[0,0.75,0],[1,0.25,0],[1,0.5,0],[1,0.75,0]];outlineConnect=0;fontColor=#232F3E;fillColor=#ED7100;strokeColor=#ffffff;dashed=0;verticalLabelPosition=bottom;verticalAlign=top;align=center;html=1;fontSize=12;fontStyle=0;aspect=fixed;shape=mxgraph.aws4.resourceIcon;resIcon=mxgraph.aws4.ec2;" vertex="1" parent="v8sl4b0eTk3ght6R_iG8-8">
          <mxGeometry x="81" y="161" width="78" height="78" as="geometry" />
        </mxCell>
        <mxCell id="v8sl4b0eTk3ght6R_iG8-10" value="SSH reverse&lt;br&gt;tunnel proxy" style="text;html=1;align=center;verticalAlign=middle;resizable=0;points=[];autosize=1;strokeColor=none;fillColor=none;" vertex="1" parent="v8sl4b0eTk3ght6R_iG8-8">
          <mxGeometry x="75" y="239" width="90" height="40" as="geometry" />
        </mxCell>
        <mxCell id="v8sl4b0eTk3ght6R_iG8-11" value="" style="endArrow=none;dashed=1;html=1;rounded=0;" edge="1" parent="1">
          <mxGeometry width="50" height="50" relative="1" as="geometry">
            <mxPoint x="440" y="640" as="sourcePoint" />
            <mxPoint x="440" y="160" as="targetPoint" />
          </mxGeometry>
        </mxCell>
        <mxCell id="v8sl4b0eTk3ght6R_iG8-12" value="Edge" style="text;html=1;align=center;verticalAlign=middle;resizable=0;points=[];autosize=1;strokeColor=none;fillColor=none;" vertex="1" parent="1">
          <mxGeometry x="615" y="160" width="50" height="30" as="geometry" />
        </mxCell>
        <mxCell id="v8sl4b0eTk3ght6R_iG8-13" value="MicroK8s" style="fillColor=none;strokeColor=#5A6C86;dashed=1;verticalAlign=top;fontStyle=0;fontColor=#5A6C86;whiteSpace=wrap;html=1;" vertex="1" parent="1">
          <mxGeometry x="480" y="200" width="320" height="400" as="geometry" />
        </mxCell>
        <mxCell id="v8sl4b0eTk3ght6R_iG8-14" value="" style="image;sketch=0;aspect=fixed;html=1;points=[];align=center;fontSize=12;image=img/lib/mscae/Kubernetes.svg;" vertex="1" parent="1">
          <mxGeometry x="480" y="200" width="31.25" height="30" as="geometry" />
        </mxCell>
        <mxCell id="v8sl4b0eTk3ght6R_iG8-16" value="" style="aspect=fixed;sketch=0;html=1;dashed=0;whitespace=wrap;fillColor=#2875E2;strokeColor=#ffffff;points=[[0.005,0.63,0],[0.1,0.2,0],[0.9,0.2,0],[0.5,0,0],[0.995,0.63,0],[0.72,0.99,0],[0.5,1,0],[0.28,0.99,0]];shape=mxgraph.kubernetes.icon2;prIcon=ing" vertex="1" parent="1">
          <mxGeometry x="460" y="380" width="41.67" height="40" as="geometry" />
        </mxCell>
        <mxCell id="v8sl4b0eTk3ght6R_iG8-17" value="Ingress" style="text;html=1;align=center;verticalAlign=middle;resizable=0;points=[];autosize=1;strokeColor=none;fillColor=none;" vertex="1" parent="1">
          <mxGeometry x="450.83000000000004" y="420" width="60" height="30" as="geometry" />
        </mxCell>
        <mxCell id="v8sl4b0eTk3ght6R_iG8-18" value="" style="aspect=fixed;sketch=0;html=1;dashed=0;whitespace=wrap;fillColor=#2875E2;strokeColor=#ffffff;points=[[0.005,0.63,0],[0.1,0.2,0],[0.9,0.2,0],[0.5,0,0],[0.995,0.63,0],[0.72,0.99,0],[0.5,1,0],[0.28,0.99,0]];shape=mxgraph.kubernetes.icon2;prIcon=svc" vertex="1" parent="1">
          <mxGeometry x="580" y="380" width="41.67" height="40" as="geometry" />
        </mxCell>
        <mxCell id="v8sl4b0eTk3ght6R_iG8-19" value="Service" style="text;html=1;align=center;verticalAlign=middle;resizable=0;points=[];autosize=1;strokeColor=none;fillColor=none;" vertex="1" parent="1">
          <mxGeometry x="570.83" y="420" width="60" height="30" as="geometry" />
        </mxCell>
        <mxCell id="v8sl4b0eTk3ght6R_iG8-20" value="" style="aspect=fixed;sketch=0;html=1;dashed=0;whitespace=wrap;fillColor=#2875E2;strokeColor=#ffffff;points=[[0.005,0.63,0],[0.1,0.2,0],[0.9,0.2,0],[0.5,0,0],[0.995,0.63,0],[0.72,0.99,0],[0.5,1,0],[0.28,0.99,0]];shape=mxgraph.kubernetes.icon2;prIcon=pod" vertex="1" parent="1">
          <mxGeometry x="680" y="320" width="41.67" height="40" as="geometry" />
        </mxCell>
        <mxCell id="v8sl4b0eTk3ght6R_iG8-21" value="" style="aspect=fixed;sketch=0;html=1;dashed=0;whitespace=wrap;fillColor=#2875E2;strokeColor=#ffffff;points=[[0.005,0.63,0],[0.1,0.2,0],[0.9,0.2,0],[0.5,0,0],[0.995,0.63,0],[0.72,0.99,0],[0.5,1,0],[0.28,0.99,0]];shape=mxgraph.kubernetes.icon2;prIcon=pod" vertex="1" parent="1">
          <mxGeometry x="680" y="440" width="41.67" height="40" as="geometry" />
        </mxCell>
        <mxCell id="v8sl4b0eTk3ght6R_iG8-22" value="Pod" style="text;html=1;align=center;verticalAlign=middle;resizable=0;points=[];autosize=1;strokeColor=none;fillColor=none;" vertex="1" parent="1">
          <mxGeometry x="680.84" y="480" width="40" height="30" as="geometry" />
        </mxCell>
        <mxCell id="v8sl4b0eTk3ght6R_iG8-23" value="Pod" style="text;html=1;align=center;verticalAlign=middle;resizable=0;points=[];autosize=1;strokeColor=none;fillColor=none;" vertex="1" parent="1">
          <mxGeometry x="680.84" y="360" width="40" height="30" as="geometry" />
        </mxCell>
        <mxCell id="v8sl4b0eTk3ght6R_iG8-24" value="" style="shape=image;verticalLabelPosition=bottom;labelBackgroundColor=default;verticalAlign=top;aspect=fixed;imageAspect=0;image=data:image/png,iVBORw0KGgoAAAANSUhEUgAAAQAAAAEACAYAAABccqhmAAABhWlDQ1BJQ0MgcHJvZmlsZQAAKJF9kT1Iw0AcxV/TiqIVBzuIdMhQnSyIihRctApFqFBqhVYdTC79giYNSYqLo+BacPBjserg4qyrg6sgCH6AODo5KbpIif9LCi1iPDjux7t7j7t3gNCoMNUMjAOqZhnpRFzM5lbF7lcEEEYfZhCTmKnPpVJJeI6ve/j4ehflWd7n/hz9St5kgE8knmW6YRFvEE9vWjrnfeIQK0kK8TnxmEEXJH7kuuzyG+eiwwLPDBmZ9DxxiFgsdrDcwaxkqMRTxBFF1ShfyLqscN7irFZqrHVP/sJgXltZ5jrNMBJYxBJSECGjhjIqsBClVSPFRJr24x7+YcefIpdMrjIYORZQhQrJ8YP/we9uzcLkhJsUjANdL7b9MQJ07wLNum1/H9t28wTwPwNXWttfbQCxT9LrbS1yBAxsAxfXbU3eAy53gKEnXTIkR/LTFAoF4P2MvikHDN4CvWtub619nD4AGeoqeQMcHAKjRcpe93h3T2dv/55p9fcD+b1y3ZhCjDgAAAAGYktHRAD/AP8A/6C9p5MAAAAJcEhZcwAALiMAAC4jAXilP3YAAAAHdElNRQfmBBwMAhtSz07SAABJiHpUWHRSYXcgcHJvZmlsZSB0eXBlIGV4aWYAAHicrd1ttutIjqXp/xpFDUEURUocDkVSa/UMevj9vKbrnhEZkbUqK9uv+7nHz4dEmhmAjY0N8Hb9v//P9/a//tf/mtb1/rg9l9d73Xzqn+f23B67T9733z/7+Djdn+PjX/9Mfz7+09dvf3/68Pfs7/n3jff657f++vr0Ty9zn3afLf/wQu/jzzc+//yN7fn7+/H+Ty/0543mrujhk/PPC21/Xmh+/L4x/XmB/Xdb93V7v/7xFj7X7+/zrxt9//679eF7PLa+tnx+3/vP//98Wb1z8T7z43HN03z3cZ7/XMDcf4/bvPvk6eNjfvvB+/weX3n4OM1/XYkF+Xfr9Pc/3vb27VKf//aH/o9266/Pbv95t56PPz8y/6dFXv/++99+/TYt/35XxtL/wzs/338fk3/6+vuYv78r+uuf93/89/2e7++4Z3exP1dLvf65qb9uZXzm52zHs7d+31zaen/5b/ESr/Fn8+ftVB+Ownk/7h9/jmmbHrbrOz2nc9qn73SNv4/pcInPx3V7vHzyeByPeXzxPb8e2+Owb/asP9P38Zq3+bSbj/kY2/6cH39fyzTedrsft/Fub+98Tn70MXmxqXPx3/1z++/+wvebKUzT/f33Wrmux6PFdhntXB/9mB2Zvn8WdRkL/Nef//xP+zrbwaVVzkQ2C/v5vcRnmX5b3JGYx0bPfnDx988Gp9f55wUskbdeXMw02wG7Ns3LtE731+PxmiYL+bZBu0t/zM/Hxw5My/I4XeTjOc+rvWFJ3tqvvKbxo4/l4cs3X+fM7MQyr/PL3mzzbrOez8X5eT3fztC+zMtzWZZ1eS3vZVv2dV6f67Ku62vNKe6v+fW8vZbX+nq93q/ttb/n9/O9vNf36/1+b+99e2wzp7ls6/ba3tu27bv33L3y7rd3P7Dvn8dn/jw/y+2zfl6f92f77IfjczyP5ViP1/E+tmM/H+d88h/ner7O97md+zVdjtL1vJZrvV7X+9qu/euofefb9/ldvuv39X1/t+/+96792dZ/+fPf2LXpz649xk71g6+/d81XX6+/XmLKnSztmQ0TRSY7/moLHOhHe3Z/T8/no51rz+7bg1UsDxe5tGfn1I7Zwec1PZbv9Nfe3R6/HW3n/kf7dns9/2nfHv+3O3dr6/6bO/ev+/bvdu0sDB1jx35W2KLe84LP7/e9rsv3u28fe/PYfBCWPuu7v2+/74lj47t+t+/77ufi20TH+Xp9+/p/9XPvPy9/+5fX/6dX4E7/N1fxjy9++59cxT++/O1/chX/+OK3z/ndgZn57TxtnZPn+5yen3l2Gp3o2f6/Pvf9yzdO6+t4ri+n7/mZzjvU8H7vNvPzcW5v5zZ/z+P7vK7ZK12v9yECzhz4ejzO5/F8frYVcnid07Qtyy5yPG33fFyvZfu+p2lf1vc8rdfNhfH3+/FeXg/vfLni/fm6Pu/j8d0+5/26d5zux/e1X6LO95q+y/547vdlu1z385yu83I4bx9nZTu++yqWnsfreb3m5Xwd2+O5zb33sV+HK/hMmcMsUjl3j+f35SX2737fC1W86fd2Xq/P8b2u52s752M9n+v3PF2IcHFNBdP9vbWo19Pn17G3Y5zC99ofY2M2n38/j/12nY/3fvalDwvfvoc7d7ss/ruf53pdAua6fe/f9Vic//PzWj6f95vNn9v1PN+PY9u+y3Hd1mU5Xqv7/rSr+/V6eod92kQELmp67uN9HzArj7A852N/3b2D+72cDF7g87g+Vv1mFQG0z3bexw281+f57HeXhzs6NiFkbYWv004fX0v1eb2meX3Nn+9xfe7LGwrY3sfztrvC77Ut7Ht6Psb7bb/3u7/e524bwJLXNK4rmPE9n89xaB/38bV1eXYl8NH3u0xzXzrePj833mnjxH4/dPmWg+Z1rvX5tWSux9Z9nt/363TUOdLXth/Heb8drw/E7vjxZ6/ZVXK43+l8bcf5Wr77/HJ+z8dnud6Wmbe7pmV/3p3S9/J5nudHWH0e1/K6Hefld+88p9P/Oed1O6dO0fzIEObP4/l+A0fL+bzcNMt4z/zbOi2fx2sXpL9Mzjuet8v72cpOy+fkN7PE4/BxmV9uyMdxNFZBu1Ua3wKc/+ObvuWkXjeL4C2/0+fpf3emIbo4tBsn/vCu8/fzvT6nzXzNh+VxsUBXR3zeWMrG1CUz5/mEjz77dsg8XOid59553EOoWfd1upbj4+Lnyzs91415notf265O83+67tv/wYUDMs6jK9i+83B4xxzg4qOs9jCT58nVXuenkzC+9/tOX+9wng67WAqSTt9xQP6Lnxq/fvvX1/7+51f4L67hny/h9l9cQx/+/d9PR5Av/e6vczucTyc0FHzjAhna+ZHHueav7+wC6Ll+/KToe2UR+9s35tf1fL6m/X18HN77Ac/zJa/7vE3Bg9tyzcsVGlivHfixNyLhZ50+y/sUsrk/LtjvyJ0OUXTjytfX+7tKoFZnkdU6p+/tdXud++y+jvf12p0ox5O57wL9Oz/38dMO7McfOIQBQQjH976++Mzt+7QQkxe/vNPtNZ1MlG18n8fnPL3K0/+9reOW7/k87hfHxZ3eObqXxX7sy5Ofe345I0D0y23wcM8bDxia+JzQykOcEInui9vbuqH79V24mEz3cYgPm9ABaThlj4fQ83XEv+f9ZXVOPhtS8a4vWOU+8Xjz/YCT349rej3ADb/GWx6TA+5Hnl8+go//CnirE75DXuvS4t6+LEGwAd92QfLNNbhk7pZhrRIdfo1H4meXHPf+Wnj7lc9cJpG39V3sxXc+lpvdtp3lUELo6ai8ALH5fYfVoR47xM3aKfsiBk9vK/mcN77OMvNYvOsMTp3r67buvPxnEwe25f2UF3/f5/cqtSrZtnUbXwo5sfB5u66FE399t2vdc+33z+c5OS3nvNx+VmSPhwk8RVF47PG+3hzw+hCqvg8wbMEzuM2Nn37uXvRrzezd61r4lOv9/roid8PlTLDc9zi/Eo3hrZ/Lybc+7NZ13hcB9Cj89reo55Dsux8WZ5/XugCC636TRtiH6SXs8Bzv3SFzFbutsrnb5wVmf+YHzyn4yUMlOtuTJXSl0xemlfQIg4/1Vghe5vf1ub4v2+dcbNOXB7ycf99gZqukaNs7oqew/Nj8BnaHgQ7f5ZS/3y7sdoC1Qt8uBHyFiOPp7yckkAmKFf4GRMOrrZ/4sT+/ky2cp4EIxCBhYN1kkILEdM0cb2aQ0wUzVszKx6pbixmc+dxlxcu07d/X1IYepzde3N1HJvGOCflaI9BFrtCrvJ68hwTi49y8O0vH+n18wAX+ujNzFwm/mQoG5/Vcmco3U7nszmOdbpzQuI33ci/EZZWvCyw47s7KJrc47D2/s+1LUQcInPaDUR3cyvplXs9Tov+dbqd3gJuma/9cu+A8HddzutZ5uZ9cqKv8bLODBPg/npPzdVzz/hW0RMqv+1v267t/nvt2u+wDXPZZBjTYPyCYADo8geAOQ0AWAMz5Xe6f+b1fNm5dXBH745T271PoQ0ysgJb1ebVl6+dYPsLQtDEYft8WL1s51OOEHtFaX5+CS4J+XnL7Rn88PqcFAxblIhfTX3a4i69yltwqH7xOAAN4tHXgzvItv+Ukfi4v8xnuVUrFD+ddD15LLiLdc6/i7f4qUCyv+zRCon/v//Zv4OoKskwB5NWVyPKk66+XXGqbZERCwvkQXmHNz3ZZFRmpk/2Q93MLk107LB07/nwcZdkWAM618Mc278abTdKzC5JZUX2FjPmRZ3htDtTGvN4f94qDeZwZmKDOBGUb5/N97OVlvnb/vG6O8/maPnZRqFnsP3fJ7tYV6J+5wcLRk3U/78LVq+Tg+R0pAiKIG3acHXsuRJb9yEs5RTwXuPgNcW+taLCYjxZBQch5Ps/jkkyCeQ9nsPS3FGbKBNpaa3TKUkVz7tV7n0+50vqZGfoBNjuHCClL8n6tOzcHHgl072zvuj9DMZME/MGN3QrIr2WCzR+8EOQCFlhNRm0JXqXJ/AkndcLZGxNyEteXuC+MdeSAUpfLsd/kKdKZr/cWL5d1ypGM0+GM8x4sbJeQy1WEwc1luQox6xuLc+cusxfZyPG9fVij7fl+eN+icjkzp7nyvWCvs8AK3f0H8DieNvEx7uQj1dtskVv/SBPeI4O09m7qK3xuw1YYDSg/QgInKSY4WsxOePTmx/x8je9NOZ6FLxDwMLD7LcSN+DvO9/HGPXEMUP/EjU7Hwp7WfXjqRZIxUMSGAV5zUcDUdw6oHsLW+4xkOY5DvDpFjXkeEPsqVdt42hWhs++iDFsQpw/8wOd9PdjZsQsO7xfaY4c8mOvn5tDP9sAp4QNhsPe3V5Mmv+dP7qZ0QQ4XqHIjBwBvz454MqTjcmxyF9t2zrd9XP6TRYslUr4NUoGhUSLg4AuNwkjPowBnoTDcLpmLFVem6+Cq3Lb7eDzvt0vieM8140sWWbOLkChKLpykGQvD+zjoyBfXto/D385C9BfY9h1Ryol4b7ft+bm/hUr5sRDF7sW0HbDgodjCxqM7CTz3vl7nFNp+FCtl8WfGK5wHrrYdPvpIb3krJHlxQPCZ/OT79V2eaNdTmOIrVjFQLv655DofAN6Kj/Bbcuc0MaHv7VofAMkd1pXvufOx2awerAmzPiyQ3/xY4MFMC0BTIWd3Kjl9+65cgffbMOzrsT6PyXLul6B6Dd7jU/BigUEmZAJwaD8fkQAi1+tCoTkW0VuvT1vpBm+YJLbpXABGQgnGYcu4PixzL2MG4W2V1OgJTEQ78TTim3s7UBl29p6rPO43fuba7st1reVSH+Fi20qT2Ay4/pF+z8c8bAykQYh9HBZuUIYvJFnKHaPg9L9QGixst8EnMsuqrIE8SbQIilPEyI2w9ZxZIN/IttelM3DlAyMJvm0vm1epeR5/meH1mgYqmI9p3zjZS3LqBPgI1zwjfDjJYpWzUmFFgHp9nDj5+OfmuPudfC2u5I0gEayvgDovv3Ql3+EU8BwL1IAXmiWWy2F1Jv/G3alDYKRvsIriwPCGY5G/y88bHpZBJHqy3S9fD+ZMX9HosaOaZqzGCrELIiePx/4Xi/34ZY2iwvSwKFjWa5vABgmAH+G9ITWoRpoprjl+2IC52+dzTjivu+GAP7ejTJhH4AZd+LxC6bIuyAgutBj8zhNxZPvv46OfEwbn9+fYsbTLwRgcGef19h2O6XrD/efmqzGdXPZV0Op4smOe6Jk5YDxXRABWBua6s0nJsrQuIsD2+wR9wBvCRWhcycUL6GA9vTdnwubj8fCqcNsfAODIryUCjDAvj3LenrfVXk3zKx81RbI+3IjaGLfDGYAvrMUtvJyi77gTh9bKcIYQg8IGN2M/LPtt/txHqn5agKIfu4nIxWIIF7bv1R0fDhjMI2Pyph/Xjm+Ga/HZBxwNiE0H9lj+w/L296B88kJcppz2wRgdX7Fe9AcAoacJFfPIShxQKA5A7FN8CAh3c5v7W5yynM4KUvHxepfOwPgiN1jDMsA43MEenckkkFx80vMXksUjUBpAz2cDCF/nDKUOw0kknT2g6TFf0/Rp5xbm6RzgwPbio2tpVUS5kAdea/+xx28R9BXldHzQBddV/mFd1FpsIVc3kpziLd4JMS/4SW8sBuB7oueAk0lK8bgF/FFH3/IETos34gPK/o/ef5Guy2XFgsJT6Fiey+cegSKHxZmVwrqN67bZjTaoBIJdyn7s3v10eWGv9zoyjueM9ZLL8u6yJdEdbj8x8MxUrLUaz+VWBieOOG3KEflUOKuguc0f6y7WOJF8lhcp7shyhFig5yGPBlWe2yvYbjMcSDfioLJohMeHFca5cmYjUwd3hA087iVxmHIPwJdI7FxFQ4lEcRvYt0cEAlNgIhgnSTO/7obsr3oBx7uMzAvex2ziDnehGurhn1gutLmidlVD2N/zFj3nNPOfmS5m5M3rSA+g8CPAgEz+xhwIoYAqhIDBg2Phsie0zQCldwzifXtxnXxaRBnK9zVCbhmLlcd+OeOTl4fPrdAXt6hSwoNVCs0ahUeIgBOZXjAkz4RYiltf+/fYyq/BKmQqvy1BtF3OaGbz8rau82IS57bDQm9OuyCNPX6LnvMwcjTP4/16TK0htkI+c0Doz7N7Ky+T8n1nrlVyDkMBZq4pRGJBgX2MltzDu+08jICBDlHlekOlMwrhuRdhASEob1DD80O49u1zeKO9iIBitjjHjQ1KDrhyeSTcp+x4igwAMZD6vZ/gMaP/SIvLeWSPDtwqeZAS4dGwIDaPk37vN0b5ieUNwS3KmyIwN/cdOM2iXp3Hs6CNu4HDr1ggO+FkczgleH7qsWJrCnj4tjc+6n5gEWC+ig1WSwCRRX7L9i3MATAACJJc+FyGwY/IRR3fiHnh67Yz/OWMlZfwruJ8JadJRvySQahxuBtJNO5VBMFHdEFyl7Z00AVw7Aq0KEGrQsiyijVCobfxh9cOtl/7Ey6889f+ETh5LDSI1NsLAC5gAo/DWZwYjn1J7nFK445RiXyrzkjSOMkJ4/YJQAnDm9ivYJCP2e4+CAn3WPESFYH2QuZlIpKtVfYMUiCqUn3A+pO6sINuB6vyQGvz3FH0xt6GKwLxOUAJ+YRfRL276NsJJV8SYWkcYMJRLU5ABxOCZYCvAJrlp5QBvIgBZNUhQBnVGp/S5QyneCtOiC9f1f9vaTlwjSlolfcSecfmM3z92q88N6e7tFUShqOW/Dmqe3TSZftdhmrrWkwNYK3ibYi6fOMVxTc8ekWfb2jr00q/J5KFg0f/JT8L53WTZlTe4T2mfvqJfnrclT92hSrATM3yOAoYTtP1Ld1SNeoaHH71Ib+hfmCf1EUGJm9tJ/+BX0ETK8wuOI+zihe8yN7vL4mIjFmu8gm78DXCiT1TKFqwx4tcQ7rq/GCFxQFxRw3NvyowTxg26v8II62vv8DaOsCaFIP3uvZ7FO0lZF8zFlfckKAXgUrGvuU//ApqvwMfl1AG9/Dixx4EexVcMc3qgGIr3PtltKLr4xddA/KBjmebNcdHYXzwPhk4cgaE5jwxPkgDOOV9l2+PlXLmz/UWN6V6snY8Vy7fMuW2kIvHZ0CbpA/YqLn6RJAV+JVEQIBzjpMn5lWl1Dd2+DpUqmOKeTCRVGzYwr5uRPyDqRzmWUUSUnmqwcgHYLlBf7ooHIDQPCuwlBm4FVAvFpSPkN716eH64Q+h7Yr3eQwCCk3JF/F8MzeEZL+s3xUS247i2mW5ptfgYRQE12uUHcH+qdPU2SmIoF0CW6qtT3u+xIDATNOgrAFnApQXPHmOjNMSqcShWtRVHUoh1l673jciYi3/vI45lh13OIVN5ca2Ur6gnvi4KU18Ov7VxFISyEm2Dm7rwhxOUdyuvAv5RyFAlZ7rlYSiOM95H/FHYKMaQ6iDbiB/pVh89S72RkhxSOUErlzYFpQsljPKvD8hDNX+l5SJJaLJwRZcLZpzsA7IYsm1nNPr5Sh3iCXSWWhhCVvhG6S3X7DHADsQv1TueVT2nNVp8c9eV3wCv8CHZQktrYoaeHolmClS18LMQDEkNMexRWX/MxDis39I6A8mf/u8iigTsHciiKVyznkOu4CZLeCo/smjBXeOyQFxzGBvzCi7KYjahpgnZ0aqKBNBs0q/1Br6S44ADFQ5jnqTrcI08yGioMWhQmTJjtJgx7zZLLxz0oxuwU7uPwp0zvsL+Qer4QjWbdAIAPrvzBII/Mfft98n7IbCZAUcoRjeJmJuK7jOCZKuPNi2qmVhCG0D5ilwCsy9I1Zl9+/z5hIeYDyMghIooIufGE2g3Y29sy+AAvN+eA3lalUwKQG8Cgru5QNoAhTdDh67WB7LZqJkrhZhquBs04QyxcrwglwJAH5Uc3IQSQX4taUTz3mNXEq4lkJgYC+MCfyIoHYWgQdUOT4ZllCVxHwtv9OaZ3MUhgGsEIh3c2NVt7m3G8rYLTyHBUTOiclLTLJIAF0CAPwVDMxPwSaob5RUpd7Xr4he0HrtKw4PiAB77STES/Jzj9QCqV+cLPde5STZHdAsjsr432Fp9dfz1fuqbDtkPIpbrVIDOsA6IlEpBnJBTl4C+qjidiF8LSEcWlXRsouqPNEoZMgDqstXUDn221pYLtqSTb2Ke8pDn5a9TFUBA7h9ljjCkGexRah9CN0Tr2FVVdOkrRFiNy7mHV3EqoEUyhHcGE8D8J1V2WgLPnmJO2Q+T5wcZCALWNotubZDd6aSUl2niCJ2UHQe2b/aJ7DiQlRgUSlXkGIvNnsJkZFY4EMRNXdP/BI4KkDBvJnIPoqhrsLpi8QBBVd5vbh7Vcz+RH+suMtRfvHSwq3lesaofCDY7z6YS9yIlLdKiJL4kZGNaiPqSdpjn3A6Ti/WP4DHbeFIKrI+4gqeP3HBKQSIzI/bAXrFhAJFrICh8o4v1HjFYdUWbAw9i52MPMZ0QANXIgKw+IcDLf7Og2y31FuojWdJ/zVHZ8btU5u8ojEGHZRgpfp1HkyyGamvVnKl5IEU+IV9/aM/eu+RfYUPy0HKpZRjr3OwlZkdIEfMxobcrjAXluXPNYrZpfUIDmwN1nJJu/UerKUoiUCa/9Xh/PE36BPnmFBFuosF4jg5zLlyBgFQJLxrtNZyFTgG+HTaZOnM7P3ANnEqygWMDGB/hTidma9tWeN+BE0UIz1kiGerWgpElqEyK3Av1LgHC8jqJDYHNdJV+qROytoxAeso4Zbokdpsy02Z6OLZOKFHJUjRhA+gh8IqvmHZOfjrQjGqNCkuIHs8TjgKl+FGRL1vmqnnLSX1942qdCxyLW7puIIYcmoVC/5XiiFSPUdJcAiD3lX9ZViyZgqMT+6eq/3I36MCJB5Svrs3hoxlNZ3WuRrj6xmsnGTwRCvwJi6GYV6CkIPP+Z2xzq9NMZP+41xbn6iYR7lR98PEgKj1T12K6f3X6gY6veeLz34+f9Ti9Y4bxh0ih7nI8yeqAKsIjJyU9BKuEE2PY+JVI1zHgUUtWhf6I7hRwGf4HL6XUePa06CVuPKMw4u9Al3ookrhQyK4hr3lniRI7C+jucHjU/Gf1YBS4r4Nz2jFZr4j+Zn1yWjpEaNvq/nJtHna5W+jfazDaD8JmwH4uYRK+EkMAqiIxd8Ag6WfyuYR6tktbDPsVnb4Sc7ALspRP4RMEMfPqT3LwM74ck4NZBRa9304NSUQZMar+M2pYYLWv50aFpcH3L5VRVFgrJqFQpNrBFHqDsrfMkCo7i4ps8OVE5AiSgnyHVhH3AEe/hzfD8SWV3mKh5g8iaulsv18lHIOu2gbwdPSALRI1QPlxPAzOz2HEqiCyqEEd+O4nWX0sh3iNBEWZ4W2o3oNf+Q9LZlwxlPeVUQYP9IQAlWyUqzjKkg6EOcVoRIURS4FC2Un8O3P2wxpCjmBHLals0UW2SoLU8E+sV2Uhqvk7qL6TQOBuAdqFyW+JdUANoJE9eVKmLelNYz4QT2ucWWQwpOhqoi6TYzpu9xHpcYRjqhG5yVcVfVTNr53ghTnlZskLfyluvleAXd1YMQw2LFl3ar7qaWer0eMFlfvZcUhuCYh5T7YnapyjyQ7NiccIEAMlpBvyfbO/Ha129RjUODK+ovowzLn6d+apcWq1ugqHewt8nktJYlZw0KvMM43JfHtTEKDqY3hhKSdFwFwttVkfjDwvnYdwgKK9BG24JS4TF4UhnejAOkjwzxvUaksj7pkHoWNYrfbOB+D4Q+MJdLhut/MGj5SwsycIB6eFgASHb3+Ot+oiaUayTVHdr7UueLdXVNZ+v0xLuAkbeNzqNvaA3haYp2SKkdPfXA6O7dX+j0UJlmJm1+eijF5BYWMqhqwIBZixrDNxdNnlN0drpf0YEIUoNKQ81Fv6kO57BU77jyqW5elHdXqYAXVHedePABtY/dVxZAVybycnEfiA1kOgdDOtqCR5FA4rUCnDTmTmDCGd8lo7iztUZ0ceEoO9HmU+bnQOiyOXMD9PeqVmxeiPT9/dxZ/lExJtkBQjr9BaVm/ofgYx0CB73cMkpzgkVL8WV6Z9vumBi/8sb8hJIFVCz6VIL3bnuBWmeYefFaQRFeWMfFmv5MH3f2tTLj99QkXKKjj6uz2WTy0OxB/qp53xSv8asgdghN+/MdpHvEmaK1n79OtpY5XzUP2pNTAgQCq0AKR0TM2jelRx4Nhz5DnK85FdZEfgV4x5AxOg8R8y2utXDtcwOL2ig/cO1JTEsSt4wxItEqzOVrLKpVQDpmHFtZSCGFLTMsyEw5QdAryz1A4VFF9uULKFue9REAg2Bycs9IBcKLOWQmPqksmeK9QclSSum4V0R7rcFxiYVVc54Ld3MviqjRucYtg9WPo+xyLeQirFKglEhwPHk4hnJJFEFfAqdb2xeeSKHOMtSZgGPiZZzwtvcDFqAnB8rWnEB8dWwx5FA7d8IuM8ZIJ8YNbnGWcFqN9Vl4QWOTipHZSuSlOppLi23UlKgxGLcPJDLbUStl+qW+F+Zd4yaorVuvtkbxDdvlyWMIBtcBTCuhk6j9SA1HI0I9f4p4Ahf28kogm+LGjz59SvSBHLEhy4FuzROAHWvfxtyUUkiE3y0dX+ozZuW3QDxJ+kzwhLMKEvN/2ruTklhRbYWtUlf+8ezJACTktybgkR15QmqOYn5A/5CkbYKqviLgrcV3bwN4VdC1NfKkwImlXSpDYOu6JLypJR1TwepbyVQZZ2N02gAQFBHWV0H8qRdsDP4EltUoKPF8vtFZbR4qiV98JDBX2WkaKodsUgGWX/CqP62S7fJnBq0rkvbJlNZ17GdRZsaDDChbOA2Jl/tIKmBs3Apmximdk3tgBRsZJbJHMdEW9pFqbQw7yq66OFZ6S6vF9U5olvD5nShKTYFNBJq5/q/I1FOTqjLwPYayFsViSdhuHrayogbNO3GB9khJWYKuGhKxTSAMF9CWA9ML2ks7hKSPCaSHDUfdtWNJqGIX9T1HLxcrBa53hX+WEASKi68hQHIL1SKwA0iDthhhxjeA7snKHEHdEhm9rbIavQlXqyxG2ygJ3xDi8D9bIL9O1zoSaSGLFGsnVMFgVjVGNL6mG7GT4/KKf4dcc4upm43sfWj+29VqHvLJ9W6lTHglw+RWQ713ZI3CHeopJkGwE8Bw5uguxBVp6rEUFIOIA7iSxoW7si6R7T7DahcfcJdmsEeSQugQeaOUCJ3Z2icEnHISl5NkkwwDRmbiPVAZMEgS3StCOjwrS/ssh5Wfs2u4d30H/z8lIt/Ti5Kiuime4Jft/lfNYz/REo45xxnvDvJFazzzQt2LMsyKXqsVRkXhKn4+1Ss5PRLhZbNvEt53D6lVPFAsENRGsiBGS/PmDrUoRN5wB8cySnD1kaRUkrZIFqnphL0mn3KEaH3pc5upLTN1q4F2qdKXsot+wSY4YDnpKr2XF0vu7F4yX0iFMgMkm0X1Uo1JCpaKgdxNW2MLxSyMpLZfPezAxdPPOiVty7fBESRau8IkYT+tjzSTyPK2TWfFE3OUQ4eol54xFe0e/kLsAPnO1P6oriR+fk1V8ksNSIH86+CAJXY0jb+3JjKqYL/XKASfE04jYqyzCOsOqc0Q51qbavtQgRl6+5jR1JqqdvqKsHV8a4hQXaB+FAw0rMjWV1jOgV0lMqOQifTvCYlZqUdR63ywtuBQOe1QbiYVfUvDK3Ril4kClKActQfi+jZpPGt6pzzHOwrPU0ybduhnaTskQySCSKNAtvpJVRznSwDtRMyjzqSrl8xqa8HHEPjLj5C5RPGoTt1+KJcOON4a6mCIunjj+naANZRsxt9cWI0F3ZfuvCSYxXfyeExv9RRE1Vwtcl1Rggit5CpY2SoR8RWIEHWO2q2p9gxQrt4zETSB7cpeBeE694oh+2hqSADoMlUVU4JzTKbJ7cU2YrDI8xInxAzEFCyA7lxgM0MQzjyRaKww0WbEaylnTY1LpQBzSwpdQAhq9+GA+KAVo2s/1qsOWAfFTcl0h1kbJMEpF3z9bOpV5S8h5jPJElZuzDB61D+slCTmS9flLgQVcVKkuWR0i5jmN3g3aUXmRxa9h4hFHQHEY+lO2g1TAyELIy1kGHQfzyPwhTa0JyrryBg4hpW+5MfZLdv6sCv8ZBaugy6RBhk6Njh1/rmjGSCt00ARC9PUmMpOK49yG5O64JU2qgKECKKAgUdZKZIpScUDkd1sRRbh4StcZrP2Tf2Ax0EHQCUNS/nfoNZ7EQJTBCH5zgmmxRuQn+BI6wiYJ1COdaupKSUIQ4aK6TW141DISXvBUF/QzelqAcZod56WilNT0qsusd6Kw/0ZU8HbpW/ExsiEp4jOOX/UCN8QN68tWiOcPpyQzdX2vdeRxi6qKFWGHmOP1SxlrWMCsVrQ6qqJ0SO6DVgcMuJH7n5y2cicVoDoIDkV7KtfmLmBiMONpp7Zl5OIAyBJfGcVHUzwQjPzwgYnAeX8rfvDViACBP+JvtHxCFcKTYxJ6Btf6uGaBSkGjS83p0+Aw0CJNBKqasoOLIlqvmp4KLGkgnIKwVc55HXzfPf+TnHn9NTh+18GuS1vq09MKwzU6h1Pp4ZQSbaulMJlCFPMzqagg9ImQJlMsBtOpjgYtJ8t5u8Lvcke9ECBoAnlFDXGcXIkak8mhsIC6d9XqKqqjYCSu+lSxLp8KZ3zrE6z5hHznc5tLxNQljgeRSgpU59T2gwtnDANsucQrcJjK7q4g0mlYbpavCu6UMDVp1jJImL6EwkkOTY+UZnXpjNbKgRwDs1xlzHwFjxRStd984YU4jTXBQm35dcS1sM4QqgfiF8DA/XtpGps8ll/fFvthlLX80btw3I8EmPQVUqtLFfZGYgWyroNrjvNYono638NtpdfmTal5aluWPXEG7oGfcpNVl9C7X8TuhdJQEov5qYuBo1cHTFgh+3/fJe84XkRVOQNlGxCd7qVgCkbun3YwRPWp0qkRruLK/Bs20Por/Q7t0aEKu+WsMwnqcVWOB5fW2sMZUWfD/z+rrvKwNy0PyFaotqKQm1bUgKNWmRu+mNyXz+UmIni22EJhlNVK47r7JHJiPEpIFQLiZAyVduI/59Ij0IBhPxLFJYQKLUefTpTeAMUeiLVWe9f8qAl2rzAwqPrVgc6MeTDCZBGuHNDBjc0rw0SrQKZQwRN4Z7YiubOpZozw2ct5OaAbaVBKkbr5VKrqE1CjsZ6Fvnd2hlRNBgfbXJkib7BUgpqH+EsgJJelH+H8E585U7JBeF4ZBprHUt3XX8XzKKpMyJ1gmJXa061CJphbiVNr63ZsiRRC/fZZmxMvU0lo9CsIz6Gr5O2vga5cXkk7RX1NYTZiibB7ZkLu2Y85R9JbJaLaGSSQNQEhB/ZaFyRiGRYXAB2yRgdmq+qfVrKU5+01rrQV1kbLubLhszaoUlZtePVLVfmIJcbSPJJ05/yLV2HFCubQpijyLOvlND7xfuv3hluWL4gcTm5i6p0iQ59eQVklo5q/q/M/6X5kJbXKJACeKrBaa+oDIjMEyo1kFMZIgMG56XByfsq1pveQHN3rUXvWsTOPt694GuDcylelf6lia8CbNOeEx+qNCbRoYHMgvRFmqqJ+OAPDjdoDJJAR4t8r1aY0TQWdcQtRjMnCrzc7Q4grR1JjZ/eawhLzp51CE+PPXNqvC9r9e2WO01nm5b+58dyLSDGlGcXeckZpCx6ViIqo2D68yCAU9wQGkiZiOgnwvka6gmaxKBUTOkAUICS5nSMO4axLpBqoRacwzd3IsmRfjh77VAOn0x/V4NrY/FrHQ/S1oWsqc2WdW6y9SSOvxjYgNqI25zT9aOQ57iNJLTmkrPBRFTvnFlav3Oq0ShjPJAqX3nWLrneErTn5TkiDH6TJS8A2kS+tCihTDYpvQBvRkFYMT9njoExpaLJ6PTVzR3IRy4B1MqVvDfVL+QVvtudCPqUqn1o+yGNL85ewbxAL/n3ojugiJvzRXupbxFZ+RJ0J0bgEK14PidMmQZIArcVP/ztQhWuy0dRyubv6UOhKbkMETZITh23kENAAUsmBJfid8XVkVy/833b/IXLtf6PIItNx/32O7pqP2zT6ROUQlqUWTACWQ637Gl2jXC5XE3HoMr+hrdrCQ4p8lIKu4H/8hh1MADvAsSQ0hM/0vcELEgVC162O7N9IhW+mqK7xymrlOEJtkwAedUZLfa60NQ6kwArghherOfvNlNmPtLMDT+jo/4GpRzHPgvBTiGPW6P2mWAaYUX7uhSDIR6SzLzjl1YdrEIoYkgGpl1YPP6OlsDuq9vWPUDp9KzhyVCV1Gn/MrRG742tNbJFZogTecX2j17Yu4LNa7Dy6fJTVpSCEDhK+JarlHaCDT6CUKcW4NkwpZIMQHjXbow2iGY9OwhG5r28PRYBHrjfvE9lKEQOio6f5OwkeNCupqUU45cugFq3Tn2qXcMoJFy4etbkr3VpjZFlDH46wn2xmsLyv+nE5odvoZxvDKa7EZzWeWbK0nk7ys6tFRyxJC97ZGiAecWst/RBaT1X0SL4gp5XNCY85moQwj7RyIiriSMmzRPqu0FNvippUbFyggrBVFRZZQgMaX9/QI7IhZS4VFPZm/840S5oP3pH7fpxJvSGxx1CnkIHlGwJ1VWCvlHwYvp8aoytSJ/JSSFVCTbHEpcaSP2qbAcy29OhinP371NkqN0tKx5GT1Bx19B4F0FvlEW/En9Ukpk24eu/orpVD4250w0YT1DGmqKoy6TjUExAjcS8Wc7udEjp/fdVAtsTfXV2l2k5tcyuWaww7Gt4+v/EJyE4/IRzfWRHIDuj+CiGuTjYw6AeORg3wyHsTJwr76mNXEKIuSfUY6nOFIPAG2SEFPJo+5VpxDs6EgrNzhMHhLgNUXJXwcORfWJoqOcHiWXc0IcwU+wcYJtW/1zseX6XyM6TYEs3bI2rurEtvHJLK+CVP9LJiiV1QhlXOV/J41ebkdhoFEie31BX2aSzOEra71dnc8vCTBt/w5TVUQMc4WYs0pbXnb6tKbzXqROApRmAGjvwh2KLsORoGjkFLAyDcpXoNfFU5lO+Vw5WkV4f/5fdw230EcSJJIqc1vQlnSA3O1dxvpCp5OYfNQR+0N/JuG9JDKd5ImDH2jwRRzfKQU7OkXFmK0W8VpSUeVPGgSWtnMARd/Ig+e42RPr8ZJAkIOGNBENGd8OxbPJe57r85Dq9E8abufPVmNTnllY6jvrW1iqZfFDDv+e+jACSJ+iSnyO7p1sQrNuueklpnluzyNLkC8z0382OKBGZr3mgrAwPy2mHcrvXgnyzvp4I0jScM/VP4pr8yDaBeE4hNAEPpUd/KHvJZIJfC0R8EM9Wn/oicVGUIdgqnyZZp3fkK5wJ/os4RWZc7F+aYaiSbc4AA9V5XKdla6K24t/atkdDabuCJsGG0n/ofkgyxBzMamSMxv9pfAraKsvWJcdjD7jXFKv3WAQfr4FJhJrcjVVVWabLGVteTERy3wVeIF6/6Qb6VYxyPwWkS2QF1QyaA17VeWxEuXjxhqlLqyH0cwalWVBOZXJ0jAL89Kvvb3s4+grRlPTi6F3pzTgQw1WfOjKSA7S8lbqIUFVeFvq35R+mHBrzrpgRCmeg5eulS/22VRHl/VzvUUEIwt+xaSDslfWRTVtImk1U3OKEpACowkJjMnKxAWqbEB8fWpyqY7VHqrkHL1BH/HYUblKrJXVUYSM5o53LJe5XnJX/5CqCsqdjqKk043tipauhV24jQUiAuLdnVNIl9sNvv21V1geGl0rtGTQNZkPoHxSUt+YxKwW+yS2M3pri4//CTj0YhwgJSiMozsVRN3KsaG1BJFVGFRi0pjCL4N2SrOqXKyej5GAgcQsY5HYXm8zdKRUomkAkQGupDrN9kijLnKpsIBgvsgMX036tET+klqCdGubqhD4+S8Nu7ZAlkVNqrkW0dfoApNsKPMNphKqf5jeFprEWVoneyTdgMa5uU36Vt0817rbVH8Uoh1+vBMTpZVfw4wGB5iiZV54gpVzfa3eaU6smtgyrOvSYcsqE5i4Q3lnpNYFGGXr08ILqNOJouE7FRGF0aXzg1CgFhnLVj5ZobsnP+jX0Qa/f6gJt8sgW3oTJMvOAnc2Gc6RPjgJbRrX/Vt0ZxIdFEtKY2U9HDZ9fs7FDGNn4aFlSnwRIArHOX7YvdXil1HbUrz9rIhGcghuPhnpBx9I3vWxuAhogLrNCJO6/a+EzrOmpNaRGiIYc61/vTUVdT/Q5tYQ77NbSFWL/qcLy0GoRKJi+kTACtNrwP/YfnQROwReqbRqqJ2/7Ux6r90r7LlolP5G4aBt6RNrDYPppLyeWBVNB7z31ABU0QeNe3RpFZK0o90vMxPodjryHfNkNSdvQYQhzF658wUT4GdC5/JDXNgbuPwUSNZXg2rs6iqc3X4QUHS6jE0LvASA0dnct6lqNqoiOxxM1j+r5Zmr2spJjOUkoKO4HV7W8zidgwZ1R/reh2qwc2cg+YR9ttdYCH76cRIBXV4gDOKpfvIY2Oz7RnVf5ksJy1RLrZEOetponXbyZV7bxJxdA7nTFiFSFgTWF3bqNVtJ60IUCzU3QRV63xc6X2fdQguQ/mGNQhTbKIDW0QaclbxdO5NjIFSUQgbUrKgn/Sn33Sn6Uz3m66T3B0dW+yphoH9wZJ6TRhIPcxSMa9y0WSi0ZDik8B/W2MA0x3NqUp3lEa7/qbn2mh6TbdMnp6TUQ1ejg0Mo+qvkLKvZp27RtyEbKuAJxjpoXE0qpv30plSszbAxxrXsKkg9ogzIy6XmMkm/wZOq2QpJ2uqPfTXYrHgG6sfNYvXyVCuNJWTxVRvkl2SKnbEmelan3jtxDP+MN9zEi8V2YS73CpQMc0VAn1Zv3Iu1pfPk38QUw8kkY66ZAr02Ev0YQKvmdpkiTK+tc09GmQIdLXT8r73cWUA2uIHfnAT/5IDuicq5uEHB+jBzytkDY24ihtGYhOqot6Gho11IGTZUcl19QuTx2txwODyu5AhK34Bio5SVcZ6GeAybV1QekXz60U8ACr6xfRZacA6gXEQDU9mVMzILx6ENaLNB9B+vqtu35MshM0p2qtqb7AS2KG8sLbEON9E2yAlJ/Q/Zg7U8tUBBjxglyD3xbREtV7zanqFXLCaF5sCeJ2K4bLRWx0M1emBjKu9eygdDDfNWybuUeFiQ2MWd1GJDHH1AW843uF9U8FWU4ZMzr8i7bTb9P3Xqls9pRfZ/MnIyQbTFQmEmCtclZLI1Df6JD6j+YAfSSMbrFHOCEDqvnYjQ/HV8/kED5rIlnHVLjRusAFl3rxmri3tSLqNvp7FQ+O1H178z0uqfZQMQN1RDMoKDWApWEjsXoSCSFdTiCzeTXwrose3cmxK43koXl/NTXOywWhhTXVMj5WtK2N/dNIkCO8dNa+GDZAT0KlRhNJL7HTyf3F/mQrOtoSeF/JhPxdm0x6b4a+pxeNlE4oIsnQBB4Tjjx//5iEZhapozRJp4nNCTH52Xoiv8HpBJ1sjx+ZGny4N5HEif5b/rUn/2LRWBfYpjbWLylD/Dg35sw0wySiWwrLjTHxY6C97Y/0vSrfZww8S72IzG9L5Fipu7VUURUKG49mr9QttIRyvTGeb1K0nBqYoP4PnNUMIMChoCoFJZ5SmqtW/UjQoOm07LEewGfDZl7D2UcdhagIQwGeho7Bkg7B0ObV2mtB7/V/AtK1RMotneyka/CfThP1ARl0EDHnlHk7A2Aappmbl9jo3IC6YD93fv1Rv8s+IAyIrR6ro+YAAan2uZFEyHvAJKwv5U3zfZEwH2lxmvox6svSwO3ubEx8U2Cih8SDXeGsI5hUJfQd0zLSS+UNEYtfWCpQyBdQGPGmywgnUOtS46V2cpoLzYJzAhmR9l4XB+50Hi3XqEG+ImZTcsS/WPJ6cRjgaJ6pbZNeNeHuFAZ/3grsU5HmbHbffR5qEOumHvkZo4drSFmqGfP0Ke1G+6NFwOlaHSAx1h2hiUSrsaimvDEa5HON5veo6+VPowkyA7yRPP4Ghoil318RpaLgUXLjJW8g8venhKkipEqMRSVRekxJp9fBWwlD79Y7eq88twa6T4q0ZCG1PDXXRQOTmrsMxYhdE7tUcACQ9UcRVKyENTS1XBHuEJN9dNxiIOyt5SFYcD08iyybppqIFD4AtRoG5vAihZPaDH2OutJeEbIRfrGq5mfy/t8GvIlOJHMx6iRY5kNWmVR7F2KBVknNJxHPTzjxm01jI7lfWXaqjm/g9v3rG2uIEN+6pSRhInOtPA5RY3rFAVxPoysLTYPzZ0JXknhBbqrAF2MM1API6jx7Bbu1orL62lnkqFT4OhKKbb/ZiPUBTq+molylAmuHhYs4agFDIUeSIMfNUlsrjRxN0snZNZUAbnrU3f2ufn+NcabopibLiQ9rkKg5XAP/NU8CO8ghDD2NtGVbaY+rfS6pDFRPHc3A9aR4IGEitq3BbHRlrKMhHivweg/5dp2mppIUTPh4BMKnrqQtk+QTEdrn6PeaO1RTlGN9ZGsjjjg1OFa0F9/X0UpffzRhId0ms2YiTTm60mK8xjyzCnbF9gZcKRYLOsKdvee/MBe/5rxniqF/7pG5/ccXzsRLSdfOoivXfAZbrON9uLQqS27rxzTAgy7DhYZWtES/KDTfTZcq2VHUUIoqK5GfzHV8h5r4XgHuCC6ttbHso2OZ6dMEmOmLqnnU/m4S89WwRY3UYwLwq4lk2De7EuHWsWuuwP6LR6/6hOa0KEqkUlEQJzSeGBXQOpP+rUHYAMeSwxrt0FSC+Y215tyGptB7P2tErPWdFbnyJWUKVn+uKK+fFnT+GSiMReaxR1cpPjRzI0VwjkjQr162NhizoDWdIxlVOKv+LZ7VTc801kHIfBolm92opbskEy2AOPbTJDJxQiOzsga/kvvn6ZP6llQQ/FYHoRl1yBP8nM1uIiYCfys4CV3y4NHXuDUIrYkVTQ6q2WOUySxfOnXu6Rn5JF1HIEFFeCA11yQtR7MFRW/FcSkMg6RgqKZ3NiLxW9tMir1vLVX0Ns1rwg+Rw75iJpTh6jW7ai1NQoDJQ8x9xkwxJ+3I5aviq6/0vIdREBV0X5/hIqsHfW9CIKr1TMWsXs81PRsIJJ+VEA83UodOKalUes37LXm/Z97vN/ZOTCGho/St2jRSI8d3Ss1zpv2Y0z5WZc3Ya2V5JBllSCotTfyKTGXutqbysEh8W2sQpYGleipkSGCvb4KYiBig4DEqLEut1HzRIyUCFPepO15SK1Vfo//xRLcjCWrVS+vQ2AXjIzzt4k/J4zVsVJhtY8JdeSAWuPxpdWPURzQId2CYwpw2tkH+onJJXvJbsa2HL9RWfYyBIOm89igHmR7Ho6Ajk8z6OOBUchoGlAUo6RrCVzcY9oixbFUza+zbxoSZV8wog6ScWPNd9upo0qBUYkn/mlHdGgwtMwvTc1L0XgQFV6SHMAN7Jsw+SgXVXhQcPs4qom8v1ITx782PaOaOc8R3IK7jefA6I5KmFJFhpY1LdMIC54ZhSksKjqMfrIy3nsEStwg1GSR4IHcLtJXlSUhVJKYsNxFqc69qRFZHqUfODVVLadTE6xrtGwFpEIwj70DWeF/zMviQoqLON26de39PI3hcjWhq5ELFptG1faZJBn7UkBTn1VoMm1pzZUrfGtLeP6HFORJ8ZibBqbA6R22FPnH5fFNdQt+6MyCqV0nevbGr2JoEfhQ/fGKD9LCOWLbUwxJqto0AqpWxUck1rbqq81cKr78mQnANBMninWwZ2meM/hOPXj+5XuIY6ec5+jre5+hbezXPk8rkGc/adJ+5hmf+dC/L4kbc+Kf5hs+RcgZbLfR39J7V9d+Es+YNo2BsStIbDP2rxK7+gnen9kpwfGsCT72LzLyG+TqLG8FeJ8JzVIGuMVV1qMllu0rMvPYZTVrDQsOoUffeQffqMWYxxHjvA+FwjLINW/cZnFWDlT6DoaU1XIb2Nw8EYb3rGb0a/664e5MiimJSrHr7mxT6aX6PTVbMb5p20+gfVe2szls8fJTZ5IHxqoO6rklXIn9bUoy9qwU3f/2ZcgVQlb6UXz27Q80Och2jw9QSYPY5Dne0j32bsNRMEoW9p6ZT5ZipnKnDha46S8waETmlsuw5FAGdJL4cCFxx1iBT6tq8ybFyR51kvdCrYesVSgqkySPpbaJct3xJcD15bRJuLNpzdLXcG5On8m7p431lBEBEpVSYNWUzMwFNHJRm7EvoEvPUDcTeyNItmskaMsaQTzNCm0eiqhcZawDOgBiiQrritTL6+Te9qTLSKBri3JoMU8yoLbybRNC8sMwJNt+bCOQM3RptCST4MKVcfmYY3/evT1RD7t7QZEsd/XGkVj0akBWJ0mSDvaKy3C54/I6gewyxgWEx93Hez0b1c3TfVEzuay7Tdgjx6alxCeVlKeNhHNFR34TAODa1KvVYL895b3+81WgXMurrGzORRmdPV5THfWROMirZCe4eMVwTr+SCSAfZ9CzrVi7+1DOYomVtNihtMJR+hOZU07dm6NCFNFJ4qcL/OUaPQnNn2Z0iVHPZv/FshjldqQNQTM1Naj6dET9N0U+S0WmyPs21vZquKNS/mz0hR4yy1U6dMOzoCQjceUNPrxq9pt/4g5DSnmHyzfQon0aWJerv0RoDH16l8VRkexiySaaCdM+QWQfOagRiqhdtqIwFVBvzFhPS1We71rc8JjRGgaj5j+FOPWBi7VEgTkE90AQeavjAND2YDH6U3bV0VwUFp47kPHXjYBM/1RjqRpY/9TCR21T+3lCsruqdLky2k+jNFcVDM+2lsvFcXztK3VnXLYQqFBmx4jU1s8orx9aspsaxZGdjKtw1hharlfW4Ct6S07y3RXsNoPahw9v0sqj7fvgVW4ysq/8u0e+ISQ10qd2JCxfdOfVHnZccThNZoymjp3siT3O0okHOIaqvf01ydTQJBM7LdRBepV0rCtE4+9fPwRA1Pz9/wx/lTYnL3cerN6iLV6nnRhnh5yulFXHXGpNqndn+xLh0MC5FIsZpvcvRlvq+tsef2PX9xS79tI+C1xy3vvxm+dejz8hoJkQVh8PbSTcHQqj3C3hN7Vp9fEjrU71aoq8XQpV8RgXuN6MXNH3+Nd71z7M2mkrekxqgbDdIdqnqdJXj2euqlhFQt19TXI1by+g7WQYKRGVstZ46wo2lrvg1bePZPA7X3gxttYqECEMYz8HJRarybDXvwrHoBudYhFHhPYeQm/mJj0v4TFyRwaqw17wuGpn10risOrKOuleFrvE/zQ+go1SYdv8Ekvml75hgrBG7PnsMdw/DeDfGZBrNhiUHf/XwNtopErbttiCoQYlwMIaSMhQ1xfORwEnZwe6AC9V1fRUJFbxr1eXmZOtf25O7zpWo+Z8GAcyVZ2rywJw1/BBBhFeX9+jD/Ayu1DgnGdV2jOF7cyxCo3gdlPTbDZNqNq9WtdE2q9bPcq2bdiNDIWuRi0mKXgekJaK80Y8FmMoMGldsdb8/vrWRoO/6PRo6LIbVNt4U2TGqOiKo2a45jdFtyLO6iKmRbxz1rXS4fhcgaCk3vydEOGvh6TkLkQy1CQgEJVhnOZuteoJSGDC3ew+/mZak4GtF/cDnXcq7lA1/Kyxjxvea4WDUtKNbGdjUw1jqrdVEOf34rzRtj/CVVpga5hvMgHKbf8vlkHzqFnwmjgRG1hF08NWxpNNQMP8oiStiTpYm/zi1L7J5NyrDd/afQzb0bWJwADvpWAGGGrpMbk6NraQEAqruY7X36MTxWITrlmxrTLAj+anZLr/UILZv7Q/46yExw2n92ixxOg0XejU+O5a7qufWszvM9tHDMAY2Imz9btO9OE0cpXQIPoB3iNZMM06xMA86s5gTrV5bueWGaZjRdWteW61rYwR/jF1PlDgaXYuP6hEQ+EzXIW8zLBmnhw6NOp9q1rY/INHew384NgwYXzhF9U2JapJUtkljMthaCyfmsuGho5OJH5Ay1Tp79rC0UWXnqSZPznk0SWIelwLHYguTePUvwCzg/mZ3f+KObGc95GOE/PUZI114g+qxiQYjmxv0BzaWQI/HclmY+2uQqlfzCbmwbYyv2ZoUiAlGn051lUv7or4EnuVzwyZw8dwD/tF5pi2RLvWEgG/PNzp7Ysre2Id9cHo+q2N6Shn6bKgVHVvzmdhas/Lkz1W7f6wfcBArC2bZdeMJCDUSwTZFpQHKuqquqjSjStqk6tJwGB5ZJ3HXy6n7hULHJUibahNI9cVA5fa2+DnY8MZRVSByS6p7o2s+pY9I+nmO7Kj8E+DbYvPTW4GADWVQIsF+8CzjGSPzqDIEuaTcNLDjmSn3oD2KY22y1++pHjKLTzUeDwJAHoqfjW9rjhAlQQKwLWQ9RoR0KiqwbfXoQ1k4EwUIcyK25sDfm3KBqnLaKQlKzGtPKqPU0vDrhag1Fz8/ip3fMY2/EUaa0UW6yvTzICeb0w/E1FCNPK8Leq5RUQo9usF6sgeXVCxkvVXI4GXzoxr2PqQutH6Vm+s2PRqd38H84edEILVB7zWW1JS+1bLpDPQMj++grWocCvykUP9oX5SfzonfEyU2VeE9+I5kBBRKDdZy3xUGthTSnyZpJbnjfJ6jRldXSVLC21DIJDIABT124BxeNW1OwRvjCaiSkqVXFnUTtvJ96hM9gKFZGq8R0Bvs1kiShl0TyEpESw3XMUAhoPDswV7M/U+ceqaA+El22RPAUKTq7AfSjXbiyUcim9C8OZlQA5kYZ7DkuAVYWZAf/TRSVs+wMw018DFXEur7Mkan4tjmMQxwSsb6p6s0rTS+J7Y2ITkEi01+5TBlUXOHzV1D+5YZEdYYXQmaahZkzmo40PjkLRK+oSxTyU7c0asyq5Y8Hwe9vdR7sv0Z2/Fe/3WYwl9jnx+jBRg5jf3tqV9Qc0qgOKIG2uuBWItl0StV9UanfoJm/ujdoy7cKH6x2kl6oatJZWdySI9eEy2elcbutQqldk/WVolcTtDkO8HVKt+KcLhACoYelKEPuSc+/NhaHnHu0SPmWJ05sjPiaczErLQJtQk3S2MFa+K4lVn1DKrIoblH5KzlHX6aIVfKMhkE2vl1AaW3irOfmzXzExdNPWuRKNegyR4BExgb+nQdnAHCHk9YI/I6JqU1qkFKjk9tApma4UBPaZjG1M5lONgbszj/aNOnCjBVWiprMrDvNLqpoDJ1PUFMFj6iBsMgwplLo/v5BMGm6O1N3lExbIqs3EiN/TsKPmfyqkePYQx0N0cZZ9uMgKknbPVATk43RvP7Y01uV1qc8JDSUp2ScxbRjJwjf18s8NJwbA8/wg3xseLXGGWiX+T8oTQhertZqsdo2uVdJJPfSui546NWoJQDUJ6qT0348cnjmWlqVqrRwhmE0rhei8lERJqfLm1fh00DxajOOvvmtPYNwTaImS3WLFOfw7MnUUF7mAeCSnY3iA0FFnYq2N4j1JrED1uP4RAdBxjnuH5Py2uYdrPXGpOaqgLA6JEDgN5UP989eb7CLxrvMwTWx5g+/anSvdQvkGpWGlEfKGc1pqj0cMLRTVyu5HwKIxbgNjcG+5vEpwfgpo1tCUbWcO9BlLpnunPtbuQO3MY+/y6spw1dg2lxOhzP2zUPiebYydK/uSY57AvK5Kpfsvo9iVXjN4yfr1mhJGEaFbitWAEWQ7XmZyMrPuOgmZOIXETT9Qwih/xsjq2YikpLGQBwErWUE1PSfHtyTPKctjY79sSTZ09cQUdcSSvKU8/6byACuLznYKG0BNYx7aYmQa7ru6VQDDc1N6bH8aw1C2b4sYni2drD5DAOKqNXD8gifVBzOJpdU1MHzFkOBleLE9K0uB/BkTk3kcm1md8j1Zl7aEtjsovyOjNgjKJN5TZNy2lja0qv/nDvyRHvoVRZe8aOahuVBpKeExjjkoQJzmQ8iiXI28A42cre9J963nMFtCI/LVIzjrdKw+VsdTMpsODf1HLUimDYex3U6Y1IVx2MnmbGnpAoUiMSiD9Dphs9TvzzbIqVo4+9q+RTve8a2t9UJkOGIzRt47HYzU5bKlBL3LCbD7FoqXMcXngPwKDWMia8b3C2rnZeex1KQR5U6pziQWvl1EQp+P5XcCAU/pdy4X0Un+89JENS03wFWz6PB0EmZqsLj6Rxj5xAQBuVMSAFTjmrS7Dxez7V2pwhgOr3Yrde7f+PF7v9dWn/0xe7ff/hPv8nL3b7XVrILwu6eprvWYFSSsWF9EgTEKUAkESqWaulo6Ij+smBeo6sjQ80lOPVM7iJC/7od8+ee1Q30ZDNj8D4m79yD8+PeBOBPxx+imkIZQxOpxobvU5x2UfUEaVkx65HeKBKG4mtmkFdKg6e9TSpqMXWlUsmUI20HEhSfe336j0F4DvEuD1vMXbS6+VoGn907uN5GUexL2JhPJwBv6cUdlRv0JdCEtPY+8baKjN+4ogUZJ1c697Tp5olSsR1NucP4iYFkwK8eqJVg/eu+pPnpvrQsXFWFUSPHkU5VcEbV4h43Xpw1L3nYi3LT/2/9rRSJb86yEN1zeGv443f9/i9V2QBhc+zhtayM1KCqUyiLrgp8es2pNTreD5DswN7tITEUKOBQlMeBwP1Ja2SSI3SK5K4rBw2/TOwlVtOtAD740HmQmLtdLWBNaFq/wxc+Fx+hefbf/nrBkKkjUb9sOb6ROcmpxl1x73VxlXN0SLVg0uF0AwEkKsnmW11jjQfbrzpeKYECWdtumdu9vWrGf1ZqELF41c6+P4e+SDL3n+jk2JNh2E0UeZV/9wwj57/F2BerjE29RW0I1CBe5T8q4I3UQHIUoSqAS2Ng4DTsAAipDPwjI94Nkn23eOfiKLSAzauIQfd44N78CQoB300Ae646TH7jJr9kmS0XHM8GRbf+hqirr8fcfU7o668JHJJrtqDHhWhvs2fyWgB1mLhp7mZ9Vj2KLmgWEC4otVnFI9rPwE8AdWKnZEwzQ9WX2JatSjc8h50oYoGn4QmDXXpuWzIGFqbZilm2v9s2X/s+n7/Y9n3bPs2jPsv0/4ZdmYtX34Nu67FBF3c+NhntXGHDrZPYjn90/vc/u9diFLqP7zg7V+v/L/5gj0O1cvdpv9iIf67L3e7/5v7/b95udvflweu3f4/dJ8O7Gf4LwQAAA0caVRYdFhNTDpjb20uYWRvYmUueG1wAAAAAAA8P3hwYWNrZXQgYmVnaW49Iu+7vyIgaWQ9Ilc1TTBNcENlaGlIenJlU3pOVGN6a2M5ZCI/Pgo8eDp4bXBtZXRhIHhtbG5zOng9ImFkb2JlOm5zOm1ldGEvIiB4OnhtcHRrPSJYTVAgQ29yZSA0LjQuMC1FeGl2MiI+CiA8cmRmOlJERiB4bWxuczpyZGY9Imh0dHA6Ly93d3cudzMub3JnLzE5OTkvMDIvMjItcmRmLXN5bnRheC1ucyMiPgogIDxyZGY6RGVzY3JpcHRpb24gcmRmOmFib3V0PSIiCiAgICB4bWxuczp4bXBNTT0iaHR0cDovL25zLmFkb2JlLmNvbS94YXAvMS4wL21tLyIKICAgIHhtbG5zOnN0RXZ0PSJodHRwOi8vbnMuYWRvYmUuY29tL3hhcC8xLjAvc1R5cGUvUmVzb3VyY2VFdmVudCMiCiAgICB4bWxuczpkYz0iaHR0cDovL3B1cmwub3JnL2RjL2VsZW1lbnRzLzEuMS8iCiAgICB4bWxuczpHSU1QPSJodHRwOi8vd3d3LmdpbXAub3JnL3htcC8iCiAgICB4bWxuczp0aWZmPSJodHRwOi8vbnMuYWRvYmUuY29tL3RpZmYvMS4wLyIKICAgIHhtbG5zOnhtcD0iaHR0cDovL25zLmFkb2JlLmNvbS94YXAvMS4wLyIKICAgeG1wTU06RG9jdW1lbnRJRD0iZ2ltcDpkb2NpZDpnaW1wOjNmZDEzMzQyLTU5MGYtNGE2Ny1hMDAyLWFiZTdmMTNiZWVlNiIKICAgeG1wTU06SW5zdGFuY2VJRD0ieG1wLmlpZDo3NDNjMzFiMi05MGRmLTRlYWYtOGIyOS02MGYxZjFjZDQ1M2YiCiAgIHhtcE1NOk9yaWdpbmFsRG9jdW1lbnRJRD0ieG1wLmRpZDo4ZDYyYTc2Mi1jMTIxLTQ4MzUtOGY1ZS0wYWE1NWE1MWE3MGQiCiAgIGRjOkZvcm1hdD0iaW1hZ2UvcG5nIgogICBHSU1QOkFQST0iMi4wIgogICBHSU1QOlBsYXRmb3JtPSJNYWMgT1MiCiAgIEdJTVA6VGltZVN0YW1wPSIxNjUxMTQ3MzQ3NjQ3NDQzIgogICBHSU1QOlZlcnNpb249IjIuMTAuMzAiCiAgIHRpZmY6T3JpZW50YXRpb249IjEiCiAgIHhtcDpDcmVhdG9yVG9vbD0iR0lNUCAyLjEwIj4KICAgPHhtcE1NOkhpc3Rvcnk+CiAgICA8cmRmOlNlcT4KICAgICA8cmRmOmxpCiAgICAgIHN0RXZ0OmFjdGlvbj0ic2F2ZWQiCiAgICAgIHN0RXZ0OmNoYW5nZWQ9Ii8iCiAgICAgIHN0RXZ0Omluc3RhbmNlSUQ9InhtcC5paWQ6MzdhMjdiNzgtMDQwZi00ODVhLWJiYTEtZjBlNGM3MDU2MDU3IgogICAgICBzdEV2dDpzb2Z0d2FyZUFnZW50PSJHaW1wIDIuMTAgKE1hYyBPUykiCiAgICAgIHN0RXZ0OndoZW49IjIwMjItMDQtMjhUMDg6MDI6MjctMDQ6MDAiLz4KICAgIDwvcmRmOlNlcT4KICAgPC94bXBNTTpIaXN0b3J5PgogIDwvcmRmOkRlc2NyaXB0aW9uPgogPC9yZGY6UkRGPgo8L3g6eG1wbWV0YT4KICAgICAgICAgICAgICAgICAgICAgICAgICAgICAgICAgICAgICAgICAgICAgICAgICAgICAgICAgICAgICAgICAgICAgICAgICAgICAgICAgICAgICAgICAgICAgICAgICAgIAogICAgICAgICAgICAgICAgICAgICAgICAgICAgICAgICAgICAgICAgICAgICAgICAgICAgICAgICAgICAgICAgICAgICAgICAgICAgICAgICAgICAgICAgICAgICAgICAgICAgCiAgICAgICAgICAgICAgICAgICAgICAgICAgICAgICAgICAgICAgICAgICAgICAgICAgICAgICAgICAgICAgICAgICAgICAgICAgICAgICAgICAgICAgICAgICAgICAgICAgICAKICAgICAgICAgICAgICAgICAgICAgICAgICAgICAgICAgICAgICAgICAgICAgICAgICAgICAgICAgICAgICAgICAgICAgICAgICAgICAgICAgICAgICAgICAgICAgICAgICAgIAogICAgICAgICAgICAgICAgICAgICAgICAgICAgICAgICAgICAgICAgICAgICAgICAgICAgICAgICAgICAgICAgICAgICAgICAgICAgICAgICAgICAgICAgICAgICAgICAgICAgCiAgICAgICAgICAgICAgICAgICAgICAgICAgICAgICAgICAgICAgICAgICAgICAgICAgICAgICAgICAgICAgICAgICAgICAgICAgICAgICAgICAgICAgICAgICAgICAgICAgICAKICAgICAgICAgICAgICAgICAgICAgICAgICAgICAgICAgICAgICAgICAgICAgICAgICAgICAgICAgICAgICAgICAgICAgICAgICAgICAgICAgICAgICAgICAgICAgICAgICAgIAogICAgICAgICAgICAgICAgICAgICAgICAgICAgICAgICAgICAgICAgICAgICAgICAgICAgICAgICAgICAgICAgICAgICAgICAgICAgICAgICAgICAgICAgICAgICAgICAgICAgCiAgICAgICAgICAgICAgICAgICAgICAgICAgICAgICAgICAgICAgICAgICAgICAgICAgICAgICAgICAgICAgICAgICAgICAgICAgICAgICAgICAgICAgICAgICAgICAgICAgICAKICAgICAgICAgICAgICAgICAgICAgICAgICAgICAgICAgICAgICAgICAgICAgICAgICAgICAgICAgICAgICAgICAgICAgICAgICAgICAgICAgICAgICAgICAgICAgICAgICAgIAogICAgICAgICAgICAgICAgICAgICAgICAgICAgICAgICAgICAgICAgICAgICAgICAgICAgICAgICAgICAgICAgICAgICAgICAgICAgICAgICAgICAgICAgICAgICAgICAgICAgCiAgICAgICAgICAgICAgICAgICAgICAgICAgICAgICAgICAgICAgICAgICAgICAgICAgICAgICAgICAgICAgICAgICAgICAgICAgICAgICAgICAgICAgICAgICAgICAgICAgICAKICAgICAgICAgICAgICAgICAgICAgICAgICAgICAgICAgICAgICAgICAgICAgICAgICAgICAgICAgICAgICAgICAgICAgICAgICAgICAgICAgICAgICAgICAgICAgICAgICAgIAogICAgICAgICAgICAgICAgICAgICAgICAgICAgICAgICAgICAgICAgICAgICAgICAgICAgICAgICAgICAgICAgICAgICAgICAgICAgICAgICAgICAgICAgICAgICAgICAgICAgCiAgICAgICAgICAgICAgICAgICAgICAgICAgICAgICAgICAgICAgICAgICAgICAgICAgICAgICAgICAgICAgICAgICAgICAgICAgICAgICAgICAgICAgICAgICAgICAgICAgICAKICAgICAgICAgICAgICAgICAgICAgICAgICAgICAgICAgICAgICAgICAgICAgICAgICAgICAgICAgICAgICAgICAgICAgICAgICAgICAgICAgICAgICAgICAgICAgICAgICAgIAogICAgICAgICAgICAgICAgICAgICAgICAgICAgICAgICAgICAgICAgICAgICAgICAgICAgICAgICAgICAgICAgICAgICAgICAgICAgICAgICAgICAgICAgICAgICAgICAgICAgCiAgICAgICAgICAgICAgICAgICAgICAgICAgICAgICAgICAgICAgICAgICAgICAgICAgICAgICAgICAgICAgICAgICAgICAgICAgICAgICAgICAgICAgICAgICAgICAgICAgICAKICAgICAgICAgICAgICAgICAgICAgICAgICAgICAgICAgICAgICAgICAgICAgICAgICAgICAgICAgICAgICAgICAgICAgICAgICAgICAgICAgICAgICAgICAgICAgICAgICAgIAogICAgICAgICAgICAgICAgICAgICAgICAgICAgICAgICAgICAgICAgICAgICAgICAgICAgICAgICAgICAgICAgICAgICAgICAgICAgICAgICAgICAgICAgICAgICAgICAgICAgCiAgICAgICAgICAgICAgICAgICAgICAgICAgIAo8P3hwYWNrZXQgZW5kPSJ3Ij8+J0tkKgAAPoFJREFUeNrtnQmYVdWV769JOlPndeY53f36vX5fp5P+8kURUeM8z1M0GmOc48zghCgKAoKCOICCIiiCoCiIgDIIOIAiIogiCqIgIFITRc0DFFV13vrduldvHe6wzzl7n3vurb2+b0UCVWfYZ++1117rv/4rFrNixYoVK1asWLFixYoVK1asWLGiVfa7bvt3RP8keqXo/aJPi74t+r7odtFa0fqE1omWi64XXSn6lug00fGiQ0WvFf2b6EGivxX9dojv8W3R/xY9OPEMPMuwxLNNSzzrysSzlyfeJfletYl3fT/x7ozBfYkxOTjM97Bixagc0Ktkn8SkHppYEK2ijkFtEl2XWIBTRR8RHSB6tehFoqeI9hDdX7SbS/dP/NspiZ/ldwYmrsG1lieu3WT4HRijdxJjdlAPGUM7k6wU2k7/a9FBop8bXixdQbeI3in6KzuzrER94f9OdIroHrtwtStjOpnjjp1pVqK28P9VdJJom12oxpUxnij6GzvzrORVul23/ZsyEfuLNtqFGbo2iN4q3+Cf7Ey0ko9dn6DZR3Yh5l0/JIhpZ6SVsHb9ryei4/acH634wB3dem7/mp2hVkzu+r8RXWoXXGT1dTIwdqZaMbH4jxatsIss8grw6Ag7Y63oXPzXW5e/4I4Eve3MtRJ04X9L9HG7oApWx5OpsTPZip/F/0PR1+wiKnh9VfQHdkZb8bL4/7foBrt4ikapYfh3O7OtqCx+8vulxbYI9u+53Tm2b4lz+d1lTr/R5c6tD1U4tz3cofyZv7t8WFn8Z/jZIjQCJaL72RluJdviPy6BMCuYiX1m/1Jn0LgdzsRZVc6cV2udFWsanLWfNDmfl+x2Knbuceoa2pz2dsez8Du18rtcg2t9sKEpfm3uMfGFKufOR3c4p99WWmhGgHLkY+xMt5Ju8VMC2xLVyXvSLSXO3U/scGYuqnFWrW10tpXudhqb25x8S2NTm/O5PMtKeSae7e7HdzgniBcRYSOwW/QCO+OtpC7+vlGbqDc+WO48O7/GeW9dU3wXLjThmd9b1+hMm1ft3PBAeRQNwY125ndxkbPu12QijInChLxSzubT5lc7H33a7DQ0tTnFJrzTh3I0wSD8Q2INETECo7v3tIQjXXXXh57rhXxNPslPx93lJSvrnR1Ve5yuJngIS96pd4ZO2JFvIzDD0pB1vcX/swTFVegTbsSTlc7b7zc49Y1tjpUOYSyWv9fgDJ9YmS8jAIXaT+3K6BqL/3cJmqnQJtj195fHd7va+la72nNIjYzR6zJWfe4LPW7wmWUbKv7Ff0qCodb4hDr2phLnmbnV8Wi9FX9C+vHpl6qdY24KLavA3DjRrpQik+49t++TIJZsNz2Jrhle5rz5boPTvMu6+LqEsXxjVYNz1T2hBA+ZI7dbNuLi2fV/IjrP9MQZMn6Hs25jsy/QjU7Z09ru7Kze43xRtjsOCFr9UaPz2op656XXa+N5eqLwU16sdibPrnImzepQ/szfPStZCH5mrvwswUl+90PJSmwvb3Gqalud1jzbNMaWLMmQx0IJHL4k+iO7ggp78R+daEJhbKI8OKXS2bp9d+gLoVIWOQaHxf20HDWIpv91YGk8u2ASTnzRkDJnmNwLQ0JcY/2mZmdnzR4nbLu3Rcb8gaeMBw23iR5lV1LhLfx/Jsdr0uUfNbVSdtmWUCZ7dV2rs1aguLNeqXWGSerwqBujh7Q7XtB/IySKD1SYXTqsgCcxFsOGgDn0gOh37coqjMV/lOgmUxOCndb0js/ieVfc70niml82tKxgC3CulDP7VAnivb++yalvaDXuERg+Gmy0TEPRXvg/TnDzG5kApKVwuU259Fsl4j1/aZ1z04PlxViJF1eqDl9+sy6+a5uKleB99B5pdAwn2thAhCQB571CtMrEBz/j1pJ4BLq1tV37omfXmvFyjfP3QaVFu+gz6SV3lTmzFtfEU326bQHfaqkEMU+71dhRaafo5WSX7ArM767fI9F008iHfmpOtXbEHsE7dvrLC9i1161XSB3EQvEMCCbqRhiS4TD47DQxPcCuxPAX/i8SrpiRIF9vcfc3f6HvnE9qjnMw2H+74LPryEmVce4BnR7XZ9t2Ob3MHQuYg0+I/tyuTMOSaMV1syk034G9tsd35z172rXtQPPfqHPOG1BqF7dHvUCORYuW1WmrjGyRbzp3Sa3To5exZ66lxNi2KjO3659okqePmnUALzqE6j4grIf0sQs5qB5+Q0m8TJqjkw4BIEVthsFn/lj0eLti9S18CDpnmSzLfWFxrZZdv2xHizN+RpXTradduLpVAm5xKjId5Ch4A88L4tHwM8+0RKTB3X067zaZ+kh/u7PU+XTLLi07/oTnq+xCDYNHIWEIdHgEn2ze5Zw30OjxrNF2MPa36x8sut7kRLpX6vKDRvgBtwCJNXiutJpBD+q93ZkuKdSGgN+wTr7h8InGg7N0kT7Qrmw1CO9DJiG8uPwLJDDX1h7MhXxleX2cqNMuxvzqqf1K4vUQewJkDdrEhsxbWmu0jkK0TfRBCynOvPgPFP3U9GT5+LNgaL4N8vvXjii3iy9iSpoPlz6IgPQ8pZ9xo/6JaHe74r9C8lGrf7vp5ps97y13KgNw7+EqPvrcTrvYIq4EYYPUHRDPCcHAM9dv7fJIwkSt/kLTk4LzflMAgo4VaxpNwkq1Hm/YCSclmoSc1V9fgGvgIxVS7RfNSsS9mqVIwxL6FPiVJum3MCIcfsIFXbauQF78fxI8bEYHmWo0v6gyqvJCqDn3VZd/jexSPBsEHu980NEoZNfuzu/54mu1Wu533M0lX6ZJqWEgFQeykXvTIah7RNOeo6Vku86nN8CcmSxQ8BCek8rV33e1xX90ok2T0cEFhedXgKOeGcHWV6DZVANeq6Uxh457wkGQTTA8jFd/6TMYtfHCC/rwE/9xH8Y7hOcERXhkV1n8f0m0ZzLqCi8X6m0/srul3XnqxerIurebtqkHut5eo8cAzJbjhNKuKaes5+ZHc+xgTWrxCfZ6SyjLu5l/xl2iZxb74j9PtNXkQB4s+WHcUz+CaxvRNlZfKvGIdEarRGDMtBGDz+/hZ3Y6Vw/XV23Idd2lzFTupfNESKlR9x/FsbtZuBb8NmFhDELAexAcPLtYF//xpiP94MYhhPAjaz5uinpTy7jCH+COUxxnmDa7vLLzoknGRQ7pU+JMeWnvnZUdM8pNVqFX8yO0NjvUfH3H7qLrYCwv9EfTbbePuMFfjh9AkK5gWRgKJZk7Yn3Y9SVxF5Udbtz0nXHWHcaCarqg9yPq72bvOdWVEXnZFWvZ9PmuyI8jLMl+WInYYA693vjzsVb+UCyL/0emO/EcKgsAdlqvQvBq9NOFldtnB3ML3XR2tbSnNW5B03bw7Lll7LTOY7bKlXJjkRTCWHJU2t3S7ssIcNQ0/HybRX9YDAZgjsmB4lwG/72fFF+/0RUFtfiTCkuwqtwxNtg7UjWXFhglGPySipa4ugWodSHxFPphMCbrsb/59OcLhb74LzX9AWHP9VO2e9ldhUvJpQJ5JSIPbfnZt5eGOr4EBq/Q1P5735DGk3bl7jiHiuD5hPB8FxXq4v+paI3JwaF7jVeB0jssVB8ZhZGCQgSJSOmxyffmCESjDqjEIbzQtTuVVqiTpJABgAhFR+3/BjFyBBcXv1UXj3GY/lZnCOYDglKvQiNTw88G2e2PC9EATDA5MC8srvFe/y21/6DaTFNZ0RvQTWXFSZPo81/uCG4IwCl0wq9LbXy2+nm/9yHK3+ZCUM9YWOM8L+pGHbJ4btF0pHpmXuf3K69sCXyUUUU8frrVe0ER42H42R4ttMX/O5MlvUS6vUZwqfQ61PBOwnO5F4ZbygVrENQDuX1Mhcvdb3eulWIn/p4ef3gIZAHo54fAc+jnPgMeqdjLvf9TIg3mxtpTkqtrHJem8XAIaPL3xxs24GSTvAaUmYtjnzUaTG4rqNbl8rDTTA3GwEcrPCO6PgwhavuYolFiEV13bzCw0SHXl3gygExoP/d5dn6Ni0+vpdP7dt6l9+jLdAge463V6XsxVItRGzXFbH0GG4XXJjDMScNeylOFsvj/09Tuf6kE7rwWdzD5Te/8NOV07/wcATiTvy47IzsxkeYPBGykCyXnBdHWKFgBP/d42wWnfmPVV7s8O7EbCXip5l4HdPjJ9J5kfi4cXGbUCHjFldTJN6Z5qkEv4D8KwQA8ZGIAyGd7bcYJIAV0oOmz4+LlnYEwsAufc4fZQqJciEd2JMYL6DD5bj/3uH9y5ZcLsFnKqXu6PJcNmzs/wzNz9dcB8A2z4ThomGpqjI+WOffZNm8xgc+lKvMIc3PuwUKg9Ko18fJe67uhfw6LsotS3FRRrSUPkuaakyjQwU0mSEZeGgQghBj0MdSZoz5/UJlzdBq4MQbCHWfROa6TZ1crfesnZ5kjZD35Fu8bz4o1xtKD1aLfibIBuMhUTb8X2SlR8aD5by9a4XJTBz6anWSyl+ykGI0aAfT08BmbSHIC5JuQlOAXxgevhyODruvy/dyZFIzdxq27OsWAOIbQycnkO54rjV28ti0zyCVwQZQNwCLdLwxazwtnP5PmmuHhgnzcDUWWZymGod13KmUVGAFL5bW3rvqwMeNOT2PRDxIFPXNCquO4dkSZpy5FGKmbzXR6XhDVxf9z3cE/qvO88PixGxjuEZ9W6R7s3qn6ZNiVlq3u/LMzzeeQC06HP7EjbRo3XfVn2IVYXtiHKS83kLYkGPjTKBqAq3QPOFRXXsTkWTCb9h1VvleL60wVcVtcTUefmGkbirjz8O7IP8G+S4ZEA7oN0tKL6DwWpejlUTQA83S+JAy8XmSJeUimJ9KMJGou9Weoo0/N37ObnGsbh3bSRW/tTeMGHiFKz+gVgj5mmnaQ0ItRW/zfTVAaaXlB2jV5OW+Rqume52AYC9ndaQgYLTiAR6dXxb0ZN6yW44Bd9J09KbeLvUVqN7pF7DkJvG72kB5kXmhOC9Mu79tRMgAn6hzgtR5IHAHYnD8wGrso3ALKFYmSuisEBqLQKM177h1M3ZMllpJvpbjLCygNxinNz3BclAzASJ2QWi/VZ3c/viNSE2Px8tzuIRP9wkHW9XfX5btl4bJo8wrcI8HKNg/tJh7VWy9wT5QMwGodL3W6FMl4saoL34zmBJmRplouTt8laDqoyg+/3u78mdiHk+NG3v2IG6I/ThgpL97qqfpaj70TlcX/Q32Mt+pU3tT1R7UhRdKYEeGfK5V4wFU5HhxmF35OveqesnjkPIzyXx16gMQDvPAIaCRMJeX+L1EwAKfoeKE7pcpPtcINHrdrRpTZBWM1EnqdIDJVuQWZ4xqN24lRMADDdASAvOCtoca2E89qlDQTd2I6AQauKbMxJAoGYEnQF5nyYrWnlJ+dcFajqJu/UD8KaKoVeDWvi1+s2NflIZqDkj+oBv6oCaD7rZ1sVqOoFCWp1q0QEDwhOEy4QYrCvpbP3X//oINGCauqzC8gummrXVMXeJnPS7XM533zaQCuC4T4G1Cak0MvKZXVhZEWstq19UiZo5Sjqzam0YAQvCqfBmBqkId3V8ZlE3q92wlmtRD0IQ+IUCpJA95vcj4NwCa/D05Ntyq554bPmu3EslpQqtK8JckbcEEwVOiGfC3+nwUZoOXvNyjDfW96wAb+rBaW3iRkIKowYQ1FYT/OhwE4PUghheruTxWdnVBWC1FVeSxbBET012AFbafkwwDc4/eBaaek6h5dNNgi/nQpzMrwLNC5CMISeiSiG+XP/N0jUqxiA6369OIh6sfcV98OxGcxNB8GYJlfjPyu3Wq+0dJV9XYiaapLYIJRjJRLmqSHAP34TulnDYEOxbCqCLTrJ/tnsV4S9uL/jmiL34qvkNwiq6J00fHaTCXe5EJ+BwYjO4bB9AIPx136Xfq8z27Rb4ZpAI7x86BU7yX71eUSLKedQMF0+oKaeE89v8LvPrfA1l0EVdV0NyXQAfo5HBGmAbjLz0PCIa/K7nvxEHv2D6JgzXUJRJh2TP0rKe9WRTZhv12cRAeFaQBW+HnIT7eo5Ubf/chG/oMofPReG6jmCsbeaFOxgXT1R2oZgQ2bfRe7LQtr8f9kPx/8/xA9qNb73zyqwk6aAAqRZjah6eVk2dXhYBgsfRRg3c3VA49KNzu2/rVfGsqzTHwB/xjmy/ulX8CPwjAAF/gZAKLQqg097YTxryMnVWbuEixMy/dOyhzYGyVwazoJZ5LhE3fYMQ6gqo1GycL4vMd5YRiAmX4IPyh/VCJOfG6nnSwBdO2Gpoyl1P3H5Pas+JlMx4f31zfZMQ6g46arNRWplp6RPglDnguj+2+j1wdzd5HNViN9QC87UfwqEeTmDLn+RR52lQVv1GXsu2jH2b/ST0A1JTvCX8/I+v1Mdg+Wi5/r58XfVQyAvLLc1vsH0RvuL894rvSCqaBENVO85tKhNjsTRFWPwsCIfd7jbJMGYK7XB4IJt3mXGvLvynvs5Aqi96RpqplsUun1WvxOOslH89ViUjpXqwiIzD/18XWPOaYW/y9FWz3n/qep5f5tlDm4PjBlp7axdXfpsQYgvCxNUuAV8HH9PVTqmjAAt5nMf06bX20nR0C9a3x6D6Bc2pB5vVYmxOagR22KNqiSdjV8DOirdfELhHcfuegWz9BfCXpkSyslpVUwp3++3eL+gypl1jpiAFdncVNPvdV+p6BKjEWFK4Cgazd/0OBNPXqV7JP35h/kjVXkky02969LqzPs3F7KTd/OQNZCesqOsR5VRcUOneD7yHWiTgOwwFfd/wq1iOczc637b7rwBCy6CpCHCsBMBUQr1liIdtjHgAA8AS/pWvz/5fclS3fk7vaDe3r+ndat1KW3ZoGcAvCZPDuzsX1KCoiy1RAMtOd/fWXCg0qVoPEEY33eA7j+f+owAGP9PMD5Gc6jbqGxop0QevWjjc1Zx7xMgoJ0tWXBPzmrKg78yWWsN2y2xKy6lRZhKhvkX/xThz+ko/Nvg5+bP/GCGuwx6j3gC1GvuLtMGXuhxFYjDE5XWYyGdgXzryITnvddjg0y8PtBDEA/vy8HmaeK3DnO5pVN6IPCBKRag56LmwEotx1T/QqmQkUIyga4z01++/59Q355u98bZ0KSdUI7yS4VgAHFag4dPXWnctvqTDu/pQUzp92z1G64j2wB7vM5PTz97P5/83vTs/qrnf8/tg0/jOv10rBSFXnm7sIMbNWOoVn9ZHOzUhzg1FsDkbSe58cArPR7Q2iNVOSl12vtJAhJKbNWMQT1Uq02brotyQ5L5y5RI8kdFaw13nKvi//gIC+1aJlacGOQPf+Hrms+bjLdpcaqBvi2W+iiHfBePbwYgGeC3IxefirBpYP72AkQtq7K0a3mDcvGHKoeKtWyrQoJm3WbAh+Xp3ip+tsT5GYq7D/kQO0EsAbAaubKS80w7BalKkH5oQFBbnSmYgBwxRo70fwqBJM0kZj9So3n8lydBgD3lWd4YVGN09cSufrWlYop85ODd2vqn3XxS0rua/JD24Lc5O7H1c40tuGEd4UgIl3DyY1bd8XTdYMlpnLXhPSKoRg8rsLZnIOYcu0nzfGfQ1ng6a5xr9BVQd6arlbgQEvp5llnvKxWF8D3CHivrbLG98m2+58c9GWmK77MYEss4VmXrKx3oi6vLLf9HL3qUMVA4LN6ODOOz2YApge9wVuKbZCOu9k2n/SiNI7co7HZhykBeEQXYvvN1PUk+bYqoik+My0b7n930Bt8rJABqKkvjrpyCE/A3d/2cEWH+z2+w00eMLYi3knncI0LQXWXiIIMeKTw4wF/G1QWr6yEASn5XQfKe90yusI5sZ/+6tW6htypgHUbtQDnmtPWB8hfXqrjRSoqc0OAC5H/j+Dm+BlVzhurGuLPn8x0sONV1bTGoc9Qb5XLfyur98TZXJBdu9udkooW5711jfEa8Ovu9ddiC6NSKJIMCGIco/5dj7yhJF43wdHlE2nLRYPO9kSamsj7jiq+a4dWyp9ZqCDz+Hf+jj4MANruCGj0qIrNCQne0aLrvS9MZwDm67i4Sk+6VR8WBrHECX1LnKeFrISAFx+cj/T6O/XO4zOr4rsDOdxsv0+dA0zHBOhAfK2XXC7YbwwEPP1eKuzglK9vbI384q9JpKvo74CRZBEtldjF9feXR8pze0Qa1X70aXPcgLOQ33qvwZn6UnW8XdoJt2T/rt3iHkJpnIX5+YU1cXAVfP/1jW3x62CsTXBn7pJn1TQGL7kX//cTecJAFz7tNrUUIPXnOTHseZwwlwn3Pe3JKYYBPvvMvGrnHE2chSyM0QLrpMsOk48j0/An1AKi2Uqsd4vhhX8xk+KR1CZ2r6CSjc/usRlVnRbK8ImVzgpJc+EJUV8QoPttYD1d8PTs1himCtnN58qfffbhS6sQpiyTeUMLti/KWpyJ8r26K2ZFQPqFGDvjqP+9VAPwZx0D0P9hNTeVBZXrWljTz2TnvS/EUtQbpasulpiFyX8575m839liVOaJZ8C7flG2W6kt2uNSG54KtGKyzVpcG68sU7nnux9m32ko4+aMe7EYwbOFSBQ9RjyhQ8TbwXh1S3gjc16t7UT4Slxn/IyqrEHMmYIXgG2Y6jbalx/UOzz2HTw3DDpu/shJZufUEXKsgOaO42CVHClUUt7PSYRfRTTOyTNSDcA4HRfN1pgyVe5R2PGIjM5+pcNal8oZmgE1kTmAdRX+dSYGuxQ7P/3cw9yZDpcJ85zEBzgaoCyUM24rzeqC3iBBxn4yGbp7LKfWCQTi3oCSeJZuHn4HWjLOsxgNjkbnDzRDCXfnozu+NOi46TxrmN+VMaEvxueCes3Fej1SsX3eiInajNeYVAOwUcdFWaQqcuvD6h+CXeJJaWW9VVxxFigfkl3wHP80Sc7RN3YEfljsnN0I/Lz4Wm080JfPsykxA7wAYg5MWqK+7JQXDvZvkAAPMWmSkz9KUGCIRsC4EzeiLBbP8B8BAoe422RjYNohKMuxh51fp5sfZKPJ9u93KAZ5oXHT9Ewbkov/Z7pekp1LRbLtbtmUCDrxA4wBbDcsXAI5S1fVOzMlGDPlxWpZ2DsFqbZDJv2O+ASbKJx3zws4iSgv5268Cc6wBH4ITkW10w1xCIwSxyDy/wTTCCJSrcc4Y2xHiecyMvGuHJUmzOx4V2jW2Pm2yzk0OU5JYo8o1gLQzwAAGVTZGD68Pqjil0tADcjzNDEMo1PfVTzNcTM63nW+zAeONdSW8LsEIUFLjpFYw4G9CyfLdO4AtfgZQUeN9/2xFvTflxxny3Mj1QhC6bgXPQfhTOd8BUKOCf+pQGKZ9BRXlIjyZ1J2LPy3EpPpflkIhdaEhIlMgImF8NqKjndlgRA3SH1XDOP74iEByeX4xNHmby7G5agXAx0gOyUeIhF5MiW86/rPXO8qSkbmA0nBEbPAUOJqX1bAjUvxXlRk/ptaOTSPD8T751YKfFSQYhb9ZasBrXbWfRVT6AH5AffmC5T/majrgrkizAhRYPvBrQGwmqaMXgENGKBfYDqdgAFYFhbbjGY0k1VrAIpKyxVQtO+ta9J5z6UYgI91XZAgVS4hCGc/tjUAVvdWlU5aH36ilUj3IwxAvT6G013WAFgDYNWvAajIbQA26GXSrsYAtOq6oErH00I3AKDh+o4qj6PeZkmknVQisQ+Kfcg24KIRuSbrMG9pbTxdR6rx+L4lBWcAyF33EUj2OMEmkHokp87vJ9/1/cS7LpfAFOlZshQQwpxWoC3ErxlR7jwk6UNSbWRbVrrelT+/LYFu0qzTJfsEvuIvA0pDNQCaO2nvjukcwGI1ADcLRBisNmw6LT5r8kl/Ak7BMNCw46De0TYAgK0AXvkVsAek6AA2AY2NKtYCwwYIqanZfys1sAcYfmo1TrqlxKgB+FSvAdgTSQ8gV5VdWIUj4AbKUs5lLGLOaSwisPDjZZHcJbs7+OyLBD58nuwGFwhq77qR5fG/B5wDwAXEIYUwqV16wNED6ulzX3kkDQA0VZTCrl7XkWenApK6eKogqRP4q8B3qZln1wR9Bww8iclgHjSldLwBg89u2n9M/nkCDgZZKuAw8CGphVEYLILYeG1AlcGY3C7ovEtS3vXK4eXxakGg7Hg7tO7GJU+Wfic7MHOdYY/vKAQPoAUD0KAtBqDJADBZAHnkY8JcPKQsXvOf3P1A0gHJpbLrrIBQYfjyRgifHlDVksTHZhJSEehnwkQ5BgCsGdq318WVrkkpXmLhBWxy4UtPFUJNDBnQ7/i4i26RZ8FA6wAQAbXmu1LLkdram8aeqvUaeYgB1GAAPo1aFuDNVQ2dXJ4wKgJx81kcexINNeslJzt/aV3c+pu6J5MjtUU06LaxUqdusl9iPoKAvA9lwBtTiETxpCZJjYfpo9DfpRLwNdmpkz348MLwvPwSs6gosQE2jaSHgVF4ZFruSs88ZAHWYQDejiIOYJQU62Chk0JpJUE3N7Q1iB5zU0l8Z6f4JukN7pSPBfniYYaOIZTSHumiChsm7uaGlAzKTmEYmifG51ID0NZ8ZwFuF68O7y65ONiRMbQH9NIbqKXYi/skOyRz5CJQ+ecQC7443kF+w6aiguBTwgGs14oDeBMDMCnKSEDah6V+SCYOmHfcLYg1/u6hUu5ECdBwfuP8vmFzc6eAHsQf9MQz3a14a0lH0Uo6imfKexnD5HPxrriRRKSTWHfVsluIOXHB4exnN2K3jVIa8Bo5TxMQJYCGAUz3rVS/BcYaHkIi88yVxpQzOYFX3HyMfb7iDhfJHFVpg6eCBFylFwn4BAagfyHUAlAzTlCOhepmteGafGgWCxz5H0qFIPz2H2/uKCLB60gX5eV3COT0DikQ10uCg6lEHtTRp+UflGpJ+AM3ybu0trXv1VKN4BzviufCu36woeNdOU7gRtY3tWWklI4yDgADeHTCO+J4FK9kFI+MAiBiBx9tbI4vcIqD4u8qx8l0ZJp4FVQSDp1QWNTzeagFuAUDcJquC766Qq0acN+g1GOSZ2ZHpFrsw0+aOia9sOq0tae/HwE93CvcbAJ8uP35qBybv7RzJ9g6CY5dmaP+HRIU3Fnc1w/kiEXwkHLZTO+aNIYYQijaqR9PbfMdVQOQpJOnvJv/T8k4Ro4y6HQUZLwrCwZjiCFkYcAncEOEuAe9xkmUmoQu01oNeBIG4Fdh8wGYAorsmwCvHCHu3tGycCix/OO10fnIqQG/pDCBz/MBJokbUXlXqMePFZDRAb1LlN41agaA75Xa7Qhj7Y4H7JvQQwVPcJy8a48+JZH6rjoUghsVmamXD+BnSVKQzTouSG40ZF6zglHSi5kIOanlDwIgKVQoMAFRADRu6Ypt4wmOqsiUl7QxAm1MpQR7QhfFky5OwGLTXC3TAAqFgZiLigGAB5H4RTqBuberzQ/6LaoIP6fpno+lGoBzw7Ri4OO72gfmTJ5L1ko8w3QWIgoG4Fg5omUDjZGh6Wrz41lFVuDbHtbmPZ+dagB+pAMSrNoaHCrsrvRxGZc2Rag5+PliNgAnyhl+8xfZu+AAIzZtCKOmqn0BNLQIj9cA7OduDyZ/sVhHEC6JpAsxlxl5nTSrylNxCdmNYjQAp0l9RbpAaFrm6Ie6VpzoXYXOQDR/0XS/Belag12l4+KkoHL2Bty2u0t9XIA4XmWYoRx2vgwArLfk81UF1GdXmiPgW3IJqWxN97s8nQH4ScI1CHTxDQqkINV1xcELSC04cQ8AJ9QrjBW8Ozl72mFdm8i9E+xKrQJUEVKDpnAKfg3A6ZKXp/NT8l2h3aaoB9w7FXI9BeSUCc5Lqq9sR4unMaCuJF/f9XjJyOCBgNakypE6BlCnBODIUADgOriP3oBtskgphDGhBeCPMrUInx30BpBDqICBjr6psHrIXytlr6Dz4r0FZDLnOurMTcQ5aELpRe42XBWoagBYAODY2bW9GDCMOwVcryyvixsKFj/pPq/19pTYhvFdqS2hPBiiD/r5Ne9Sf85aWbSAkIBqQ8F+rM85DVmMilDEpOGdZ8YyifzjmUFvAJuKirBrRH3RswsTnFE51rhlYQKxpToehkgffRuA51+ucXTItAQEmYU2WeoRvBiCTFDpoArKcIZ8l63bdzs6BWQixz1IUHp4KG6CMUpFpi/QAgI6LaMBkEKTb8gPlAUthVSaGPOimwrEzQWSmg5uS207H5kaAggwsPwQYtDaCReZIwHGLdndGGw7KR48AUg1VFy9MdN2RsIAAK+Gq2CJUIGBY+C5mKyp7zpQinA48lBsNEfq7fEagPC2tn11nEl2yCWu4aU78XMLtKLe4rUYNE1J59FQLYjnAlQco8334ggQf9cxX70rGBa+I41XyNjQ929PGgw/3gHZLhUOCd4zJO+wRDyyr8WyifzQ0DAgjRRr5KwtSCyyo24M57jAYk63K1DBR1Dq6uHBz+W0uMolFAqZ6menagCCsjIdK1Bs6jV6JeruKcPleOBFVLolqyiVgmAs3MYH47RIPDWMWbcA1/9Tn456DeoRGl2FWGsUynffWdOoNB5+W+ql6KBYLpEf+jfRNtMBDcgvcl2Hst3keZDU2KUGuvaSV8XIuN18dgk+qIniklx58CRxyikG4MH5yAJAw7Xp89zBYVKEYP0xxCyoIPeEaOSx6VV7jTVeHQVkpmItGANiCsQTECpY/dSIpPM8Az4bOJ9fx1REfvAF09RgnJdynZMGu85GWHAmEoPaJ8DCpNsuH4mJ4HYHOaOyK5xtsH8g7mSbgitMauiEgGzCeGQTZlR9yT8QtgEA0EPgVEXScSR4ov0SnAGu+wpxzRtdsQbcdNz/a0eEVwU6XBqZ5vIa6d7cqoCd0UAFNj2mKvLDRwa52SsKTUIRzldZK8VEIenIlCPlI8MaxKReIME6zm7PyXn7cSn3hbATyDF/BxccXAX0LajJ4IbiDlLNeGJI9N2QYagInlKqMYpz7clCISCE5wITLZ1ypybedbZ4TXgunN0hX0lKsqtsmAaA2gYVlqi4q/xx05fUbMQe4HGAcvwVOQby7JCUTpxVHX9XCmL4u1mLa+PjSLyG75c2myDXommtTiYpnUpaUQkcFrwM+LCYF5Ff+MDvzVRTX7M9gD2ICBMTSCVdDCpMtJWyWxC47Bbyhz9Z3HvVMzGMtX1HdTaWl8hxiMVO+3CVHSRsAwCByxbFKPsuYQ2mWpLfUzkq5L5ee9wo0LvhoIi3CKfwSUXAIgS4z+qYV5FfujQI6ktFiKb7uf4VQqIx5cXqeCCRMx47XWuW7FJ7giWGXQXKLXZ6WlB3yzPeHIZg1ag4RyYac1wypCwt/RccisRJ8HIwGOTvcb0xshylksy0YRgAAEL1DeoBv6cTxWGHiDvMoqXZCsfIStnVc+Et8AKJl0CWwmIiSn9gxBd9quKpqUhARuoL/RiAb4mW+73pToWdulEz2APU3TlifOBvv1aiz+cJlztccFEuLMGr8SLEDmhkAXe9n6iwSQNAObgKEjRVPlY422IYzpAFcJkY/p5C33aBGEHAMzqJRPPFAqSCi6ioCgQBLhXv9psxPyK/PNAkQSgShWYR+VQmMVwAfoQKQ2IgnA+BrKog0XQaAJ6daDo4geraVs/PTzyGIGVX/fYDH1Urnw9YIdo/5lfkl38qustXBdxstQq4+W/UdWkDkIzU47YHFY4TFIzg+gNCeUzcaY46qYy4uQxzJgNAxubGBzp6IgLzhd8gSOswovIDxnZt479QsQQYDkuf92gS/XEsiMgFHvdLgaUinOG7ugGIo9TkyNLQ1OaYkuZd7U5ZZe4aBnZlMOdE4GHsSRJztrfrexauhXHq6t8cgJmKXDDIt5c0LhZU5CJ/MFkazGQwmXMvJOU45KUYpVAFWHFX/9bnSZZExaiqNtLJoL+P6RC50Gt+HmDpKrUAF9TV1gB8dS5sbC5eI0AGxn7n7c7TgmVQETI/Pu+xKKZL5GJn+XmI+xRJQvNZ+x1FvUnAMLX1rUW18NntdBf3FLLCe6giAUhAT9dmACSN8HW54HY/eGwVl5aA0Kn9SuzEcJUiby9vKYrF3yJwa5MVjoXIEalCnUeK0Geqc9v+uar+fHgBg/y87AeKUNCnXrTHALfSFWj1uqaCXvxkN24eVW6/Z4oCUTfMDXFHTLckqgTbvT7MYzPUYMGklezkSK8YR6+0YlEQMgkn32I9O7eqwp0ffdaX19SmXPXnwwgs9PpAwFRV8sWcES+5q8xOkAx61T1lzqdbdxXEwid+ERC7XrQKz4NK9J+j8+H+GsXMj5kSMMV+Xlq1ImyBBQXlVEAhUQ0Q4qWASjz+ZrvrZwT/LKsz7f6fb9IA/IsfZOBDT6sdA4CT2kmiFhuYt7QuMpgBPDwKeP460OI5spa3C/a/RrEC9MGnfEX/Qf59L2ZS5AZzvD4YMFLqslVk9FTrOipHk6UYaL4YApMIwlzl1LAfn3mbXfgqCpW6ilC52t1fAdsLMdPit0yYghEVyWdfODgHIJagQq+QJtaRclYkskxZbBgCLTr3O/wG6+p70U+3qMVwoBkPrezXhwH4uZ+H6y1lnEqAEdGe94afNnpAXK7U0szXV9QX5CSDkXiZFPRU1bZq3+2h1Bo6ofA6O18jtFycvSmEWiJHlaDUY34UlmjV+U8PCp/3+WksDIFhxBQZJgJ9V5gfB/JRd/NO/n9QZtx866UCJoJZl2MCrDvKwB0BZn2woSkO5Z4qkFVougp1DOD/T8eYRIry8BC/78q1auXxpAh93uOdWFgiN7vHz0M+MbNKeQKGEVCCs/+9DECb5iLrUAufv0rQkEg+rDrF8M65+PbhTgzjOS4QPsJ0vQPSSYAqybvCNAAn+KVqrlOkijJ9DodaC4qwzF5IY9GdQeHHb8piBPAShk0ojsWPEWvNQb1MPh56OdPP8rpi/IsMQQ//LEfHhGkAvpfgGff8oBBVqKaWTJUJw8SayxDdOW5HUQaiMhkBvAO8hGJ4x4uE9r3elXUCiwJJjRtDMcUwBP0vQvaiSpwCp6HP+9DU9zuxMEVuuMLPw7KoVWGti5frBwZBKZ2rEAMeg2KORt/2cOeSY4KfGIZieDd49t3dnRamUGrPcPU8hMI+CpyPrIkA6dRlsbBFbjrSNyf+6gZlL+C8AXq8gMMk4PN2hs7F7gBgAEtcMNpPuv/SkQblz8XyXvDnpQrNX1L/HZYj9zGA9OnaDR00anAr6ppzUKOrbnb0JAxwr+H5MAB/9h2dFsx/a5vawLypgaaakspMHPVw4KXuGDzW3wd3TIAjJUjIzgj8Fnpt3EULc42upkOcVkk1InUU/DtNZlSErMExGtrXqzZ/wSO9eEigWMTp+TAAvwwjLcLgBG3KCYW02xITlX1SzoSXS6os9V84H8PSmwmyyYQKs72UVW+xnXQpP+IBNFFRPYu7vQY/CpZFpWGLpoDzz2L5ELnxliDVbapeAO5Z0A9CeiUVaglghr9X7cyiKVdr1bAC8lEplqIfAdWVbjbm7dLU8/Rbg+/+H33arLzBQf4S4F6bYvkSufkzgc5rim2RER3dXGnxTTeiK1Jab69a2+jZAPBx7WKLMOGmnOE3ZimddnekogwdXkpa2hFEDHp/Oj6pigYswtR8GoDrgzw8554WRYBEuVBa9zDQCYagj6qrloxJFHpHmq5SeUf0P13tPfUefQ2xFIF1UWHDTkb+/z4ocMDxunwagAMDgyRWqLfG8tJM1KshGiKu4z8EFHKXAGHSGSVctSmWtqzglD6F6dpvsfgen6m/NwGdqFVFE9ht/7wZACEL/Sd5gJYgL8B5q1GxnJWPFvC8lFVxAVvSpG2IGRQLSKYr6tUSbyrJUCmpM+ULqlA17Ud5vAYi3GYIe2P5FHmINwMXbLxco2w16X5rYpJQMJPu05Ent1Rl0dBzBESGW++nWhQSlXR1H59t09eZSrXcF3l2vhaK9CWxfIs8xAgdeXraVqkK6TtdH+0kSRFmatH8rlSMwWloF180sP3J6D5n7BP7lvgOBCeBXxzr6J2oBWH6YrXy/AV41F1PodmwKBiAM3QM4DCJ8qsKuPVLNe3KU9N0aGGCvLDYNrGIgh4om8Pit+ocd8Z4ZoDvQ7MNgGHjNfUnBEuiSs/GawzRx0dwShQMwI91fWxqtMPOxZ8ktNWpVYFg5MkM2MWXf71OXH2OYOmq5qLSa0DO4J7au0NKovH+P4xFQeRB1up4oXMlf+ulLx5EHrqomrkvgaJrhuvxLJigXG+znDH72sYYnvXpuel7IXAsOyVCXaS8AMngbtRY4bo6FhWRhxmla0AnzVY/S5G/11XFBr+dLgKQSbOqOqUSyUVTpHJCXxtPyBnok/JZgDrpCsOeSEnbAQzbIAHhW0bnr5AJNKkXDAk1JRrvPzJKBuBUnQNLpF9V4L477dZoLCwoxJZlqXR8f32TXeQ5FCoyt3BEuzJB3HFIn0RMoO2rJiT5KNA6Q0p3qz3wLhJo1vwMJ0XJAHwvKB7AXS3ohfOe7sLd8jxxwSekO6/aGgLvrr9bKB+PE8uOLE+bz588uyr0c79qd98k38JFQ7SmkneLfjcWJdnPR9swHfyBUegqRFS5XqHvwcI3becjFU13BCB4lq6ab61U7p0Ucv9BvqMXmfC8dgM1PxY1kYfqpXugcZlVhXP22Dy0oCYI1JZm7a+XSfxFWefdasREm11QZY3KVdEHYpMUbvJ38A7oVdDdMJErLMvtHvq0rl5n5Nh3TRQNwK91vyhQSS/nLKLGYbHb8GzpSj6ZHLTt4mdSOQUAnRx+vQ0CevGqMi00YgIs+OTPTp7zVcYglf7LBJWaly7NcEcY6I5Mh+5fxqIoQBPzHWll0V1qGLp7o3QQqqxOX/H1/MKaL2MCqUJPhK64kA/u4z+7kq5QjK5EyWrMP/cvjZN3uEFclxuoFyFV7KUpq84MlUtfjUVV5OGuMDGJZr1S4+nMRaDoVEO5Ys5z2XYB8Oak+6bN6xzMesVj5Re4d869lB8XUqttSrZJ5YKLT7IPg+KjnPtlOTt7yeET8S8pb9nL9e8jXaZIA6ZbkJ9LIFZ3VoAsE4bHizy/yBiS9NIoGwC6BzeElR7KJuy4JnrXVSt0d+Vn3LUND07xdv5389cVAlEpRTq5+hPCwOOlopPF7q7QZHdtTwPfJj1IPb7Od6J5zBbFjlYhpHvr9jPd/VeDERhn4uUp/iiv3OPpQ3wkgTjdJCIAVVKLh6giXC7kj9kCQ0zOYz2STLqbqXK0cf/MePFGnhBwyRkR6M4LbLdesQO0V0alZ+ZV5zhrtzqDDZRrH9w7fUYim5SJp3CCOVzC2FjURR7y94lAhfYBAKbrBSqctMbdDESGKV66NSXgSLVaZVV6A4Vb6vX6ZWlczttSKtduHlXRKfC47N2GvBoANwYCHAddbnH7qd7jGWuFVwFE5EAfZ+P1GzNXbBoItMWzCTQT8SLwWiQZiA0oa+q3sUIQedDZpiYaqTQvQcFkDrlbCH3+cBeZ9O60IK2hvFznwsFlad8jtYnFrMWd4yJbfAQZ43Ba8WbItJBj59h0tY8JTDsxN3uSG6L7x2u3x6m2iQ/gmY2eWunZ80rt5tQsbcxMMPokF3+mnpHZyD118FZm0edjhSLysPua8gK81l6ndoPtHlKzzw0uKPMYj/gECCrTCZmHTGCZ+T6AUOlaiG/z4a1QY+9GZqZy8wHqwu1PDZ5idLyiN2nhTkCRZ7za0E7LkdHr4kcmmUUjspb+ECskkQeeYnKRvewRjYUQSNTB+ppLU8tD2Rm8Vq9lcz05BjBJ3VDpGx7wVnHYd3RFxnuw0LxcC879Tn34UoJgk+dkNtZ+zu0EEE11baaWY+0G74s/ifswqJNihSby0L8RrTc5MO42UCrC7nyc4eKR1BLRz0u876gNWYJpHCfctNPpAoQ54azL6rQF6R52deSBdTf5b70EsJNJFi2LDjSaILMXSi+NTT1UIv+/ihWiyIP3NDk43WUndANBVAQX0lTn4WRpcdJF9zpB2OHdhSSp3XxZ7O5202+v8R4A3O7Or6eULxNj8dIfj/d1MymnuuhbxQjSiWmHK0iKpxOFxU8H3y9Kd/vyKPc3f6y8JlaoImfufeQFXjE5QEfc4M9y75TztC7yj4wAEknPeZ0g85Z2dqdpZvnGqvq9IuypAj7dqxvdKbYgC9Pdqs0rBbv7G6QGPg+Tb3SUBADdtG/rNuW/wQrYBXd3IFVP8lDz0O6FPXqV7BMrZNmvo4dgicmBIsfuFayRZGgxHLn1rJtd70HBC5DSbBgDrzGGF1wZBBYr53F3IxYv14Tl1l2XkQrJJuDnrp3AsOVzrIdL6tZrWrmDSXhXPONj+Pm+EP15rBhEXuRgOMxNDhjw20wdgHOlbwCaRGHxny4egzuFeGGiUzFgl3RCZ2Ov94GXIF0wzg208pKvP7P/3q2w2VmfW1ATNzhunADR/H55ZPOZNr/aczo5ufiPvcn44m8SPTBWTCIvdK7J1GDSCGza5v04kOzRZgI6HIQDoSxlF87UQWnRW94CaWf172xkyK1nyqx4jV8sWqaemZm/ND8BwCPlG69Y0+hrjtBvMITF3yZ6VqwYRV7sctNGAB7/TDz/OYODUr9/xd35awKyYk1nOrFlqxsyBgeTMnSCtyMM+Wq3BwRQaqVkVNxsO8QajvTg6h4o0NlcY4/xmf1qfuoarpTApJujQVUI6h5p3u1nbVwSK2aRF7wsYeXMlaD29kYm4o660yIsPySTO+ILKMl8c//kzvl4d7CK7IDXRqWqbau/bMIyyxvABbAVLn+V61lpBc8iuu3h/Lj9BEqbdrX5mhOAyA7ubfwZW4t+8acYgbNMxwTQN1Y1OH5luRwJQnD3MpTBljjXjtjbE1m6sj5Qvp6odTparVxn3iDcjoOEz4FYQr46LFEa/PYa//PAK4w7wJn/9FhXkv06OguXmh7cmVKX3d7u7+OTHmNXjkqGAGbc1Br4eUu8udLwCrgj9QTnkkoQlXRea1tnSnPIMAqRjITgZibillzCECTJXQwrGbIDYl1REjRib5keZLgCvVA5uc+slOYefWN0qMeHSmspXHMi70GQkzMyTHA390I+CVf9KEVHeEttPg0/cyUkEpY3Cxblp0sSLcbvMz3YNIGsqWv17Qqyk8BTV8j0XMk0H7v66iyNT0nPUY5MGe92CZpNm184fRLvk7ZufoA9qUVKIaQnCfaNkLn/jZiVL72BE0S3mxz4vw4s9QUYcvMLXHBnaUEaANh1HpOGmCY48/Ktfx9UGi9CCiLEO4AFG37WbaLH2BWf3gj8UPQpkx+AbrNLVtYHmigE0l58rday/EZA+QYUX/k94sU9IlF4HHSzR6XRJ0W/b1d6bkNwkugWkx9jnKSFmn2mhVJpnw00fbCqqBCCVNW2BvqGpAZDSPt+hodrV7Y3I/DPoveK7jH1YahYo1w3qAAucefsrZrT+4WvwF3N6EeoUjQM/KJd3j3MZbui/RuC/zHRbyCVAQYIa1tb4PkUT6MRhLKL1IxCVLJVg8FubetoIHKAWZf/NdHf2RWszxD8NRFAMfLBBo3LTOrp3SPYHaf13r+nXbRBlTF8bHqVbwivW8hsDHzEaJT/c+pe7Io1YwToQjxUdJepOoJ0pJ5+Bc4BgEin9LPBQj+t14AUB0npufEcr0lzliPMFXyBbB1i3f1wDMH/EZ1lavLdMbYibRvqIFkDqg3D6ltYyArVOmPlFbKcTYgX3D7G6NjPFP0PuzLDNwTHi35s4qNyPnxBdm+dEzEZMJzxck2c5tou+K8ouYDd6gjsdTa8bfHrGjzrr7c5/WggCfuZakl2/p0dPfra9dqBON6eyj/Kc0/tgkcE+u3x7vQlaG3TO7Z8q1Xyzc4baMzIQnZ7M3PPrsDoeAP/ZvpYEBRFmI2ViCIc2HOKEaWXVN5tung/8YKj1nYjYwmaLwR3/1/tiouuIfizSQ7CMVIkUl7Z4pgUItV0BQagcvpthXtUoGch78C78E4mhdqF0U8bBfQAUz/TrrDCMAI/EJ1qMjU1UZpy7qgyO6mT7iwGBxqrp+dWS0/ActP5a98xE56NZ+RZeeb2duPDEzcsUKl1M/t+wNN/YFdW4RmCs0WrjPUlSBiCMsMewV5HBuHYL5GAGRV9L0lNAmw39OILgaY6fg+q5bgnGHyegYzJnj3toY5Bqez4LHzDWItKu+sXR2xgmemF8ZC4n5sNxQi8SL1QnZfKgoS3nsW5VFiRWKhEw6EYp534g1N3OsOltBmefpQ/83cYM36Gn+V3+F2u8Ymc2bkmNOr5Fs74XhuL+tQ36G5lV1DxZAruD8MVJgDFomkJeUcsZmEsycSEyCc40tbqF6c3cEGCf834JCLPP0fYb8OIExSrcL6HQdhkG7c03Hzn25VS3Eagh+lORW69Syi8oOMKWn7cFYTyXIKIQx4LnYuRKH93u0K6Tlzgg7Aj5YdJAI20GJx7uhGGhSyMBY1CGZtD+uQli/G+ze13PSPwL6KL85U2oygFslKactKdp6sJ74xXBK7isPwyKy0U/V92RXTN4OA35eNPjkoRDDTftJ8KQm8VVeGdeLe58o4RKoqaaOG8VvAGRkQJVEOLrWHS8otW4eulhXZdQ1tB7vA8O0aN9mU9ogdeGmZnvpVUI3Cd6b6FQfRi6bLDGRkmm7WfNMUpvlsjYBd4Bp6FZ6K56Fh5xouGRLqegbZ019gZbyWdETgnjJZluhT4a8+R5XGOPEqMaWMFBuGzbbvjUNwa6SLUFuA0we9yDa4FAIdrQ5jCveBA5N7dCqs+obloO+9a0WYEDhOtLqYqPHD65wwodfoKVr//wx29+gaPq4inJ1H+zN/xb/zM2fKzUaw3CKhAwg+xM9yKihH4nehWS9ZRNArF/H/ZmW3FixH4pehKu3gKXleI/sLOaCt+jMB3RZ+3i6hg9TnR79iZbCWoIRhsF1PB6QA7c63oNAJniNbahRV5rRE9zc5YKyaMwP8TXWMXWWR1tej/tTPVikkj8G3RUXaxRU7he/iWnaFWwjIERye6vtrFl1/dJHqknZFW8mEE6GA80mQHY6tZO+8Ot624rETBEPy36By7KEPTWRbYYyWKhuBA0bl2gRpRCrVeFD3AzjQrheARjErQStvFG0x3iD4o+ls7s6wUlMAsKxP3JNGxohtDWjCViXTYqxBeiD4k2l/0KtGLE70SjhLd36VHJf7t4sTP9k/8Ltd4LXHNsAwaYzVG9ETLzmulmDyDX4ieTGNJ0fGJRcrCKk+Uqra56tZ3J4AtmxJ1CW+KThF9BKSb6D9oXJFYwL+WxfL1kIzabxL3PCvxDAMSzzQl8YwrE89ck3gH93vxrmUphmp8YkwYm5/bmWLFihUrVqxYsWLFihUrVqxYsWLFihUrmuT/A5DNx1TMZdF+AAAAAElFTkSuQmCC;" vertex="1" parent="1">
          <mxGeometry x="520" y="240" width="80" height="80" as="geometry" />
        </mxCell>
        <mxCell id="v8sl4b0eTk3ght6R_iG8-25" value="" style="endArrow=classic;html=1;rounded=0;entryX=0;entryY=0.5;entryDx=0;entryDy=0;entryPerimeter=0;" edge="1" parent="1" target="v8sl4b0eTk3ght6R_iG8-9">
          <mxGeometry width="50" height="50" relative="1" as="geometry">
            <mxPoint x="80" y="400" as="sourcePoint" />
            <mxPoint x="130" y="350" as="targetPoint" />
          </mxGeometry>
        </mxCell>
        <mxCell id="v8sl4b0eTk3ght6R_iG8-26" value="" style="endArrow=classic;html=1;rounded=0;exitX=1;exitY=0.5;exitDx=0;exitDy=0;exitPerimeter=0;" edge="1" parent="1" source="v8sl4b0eTk3ght6R_iG8-9">
          <mxGeometry width="50" height="50" relative="1" as="geometry">
            <mxPoint x="319" y="400" as="sourcePoint" />
            <mxPoint x="460" y="400" as="targetPoint" />
          </mxGeometry>
        </mxCell>
        <mxCell id="v8sl4b0eTk3ght6R_iG8-27" value="" style="endArrow=classic;html=1;rounded=0;" edge="1" parent="1">
          <mxGeometry width="50" height="50" relative="1" as="geometry">
            <mxPoint x="501.67" y="400" as="sourcePoint" />
            <mxPoint x="580" y="400" as="targetPoint" />
          </mxGeometry>
        </mxCell>
        <mxCell id="v8sl4b0eTk3ght6R_iG8-28" value="" style="edgeStyle=elbowEdgeStyle;elbow=horizontal;endArrow=classic;html=1;curved=0;rounded=0;endSize=8;startSize=8;entryX=0.005;entryY=0.63;entryDx=0;entryDy=0;entryPerimeter=0;" edge="1" parent="1" target="v8sl4b0eTk3ght6R_iG8-20">
          <mxGeometry width="50" height="50" relative="1" as="geometry">
            <mxPoint x="621.67" y="400" as="sourcePoint" />
            <mxPoint x="671.67" y="350" as="targetPoint" />
          </mxGeometry>
        </mxCell>
        <mxCell id="v8sl4b0eTk3ght6R_iG8-30" value="" style="edgeStyle=elbowEdgeStyle;elbow=horizontal;endArrow=classic;html=1;curved=0;rounded=0;endSize=8;startSize=8;entryX=0.005;entryY=0.63;entryDx=0;entryDy=0;entryPerimeter=0;" edge="1" parent="1" target="v8sl4b0eTk3ght6R_iG8-21">
          <mxGeometry width="50" height="50" relative="1" as="geometry">
            <mxPoint x="621.6700000000001" y="400" as="sourcePoint" />
            <mxPoint x="670.84" y="450" as="targetPoint" />
          </mxGeometry>
        </mxCell>
      </root>
    </mxGraphModel>
  </diagram>
</mxfile>
